<svg xmlns="http://www.w3.org/2000/svg" xmlns:xlink="http://www.w3.org/1999/xlink" version="1.1" viewBox="0.02 39.65 99.84 20.6">
<defs>
<clipPath id="clip1">
  <path d="M 93.898438 39.878906 L 99.859375 39.878906 L 99.859375 42.800781 L 93.898438 42.800781 Z M 93.898438 39.878906 "/>
</clipPath>
<clipPath id="clip2">
  <path d="M 23.664062 39.878906 L 91 39.878906 L 91 53.207031 L 23.664062 53.207031 Z M 23.664062 39.878906 "/>
</clipPath>
<clipPath id="clip3">
  <path d="M 33.007812 56.355469 L 90.917969 56.355469 L 90.917969 60.023438 L 33.007812 60.023438 Z M 33.007812 56.355469 "/>
</clipPath>
<clipPath id="clip4">
  <path d="M 0.015625 46 L 2 46 L 2 55 L 0.015625 55 Z M 0.015625 46 "/>
</clipPath>
<clipPath id="clip5">
  <path d="M 0.015625 41 L 7 41 L 7 47 L 0.015625 47 Z M 0.015625 41 "/>
</clipPath>
<clipPath id="clip6">
  <path d="M 14 39.648438 L 20.515625 39.648438 L 20.515625 46 L 14 46 Z M 14 39.648438 "/>
</clipPath>
<clipPath id="clip7">
  <path d="M 6 58 L 14 58 L 14 60.25 L 6 60.25 Z M 6 58 "/>
</clipPath>
<clipPath id="clip8">
  <path d="M 18 46 L 20.515625 46 L 20.515625 54 L 18 54 Z M 18 46 "/>
</clipPath>
<clipPath id="clip9">
  <path d="M 0.015625 53 L 7 53 L 7 60 L 0.015625 60 Z M 0.015625 53 "/>
</clipPath>
</defs>
<g id="surface1">
<g clip-path="url(#clip1)" clip-rule="nonzero">
<path style=" stroke:none;fill-rule:nonzero;fill:rgb(33.333333%,41.176471%,43.921569%);fill-opacity:1;" d="M 94.789062 40.386719 L 93.898438 40.386719 L 93.898438 39.878906 L 96.296875 39.878906 L 96.296875 40.386719 L 95.402344 40.386719 L 95.402344 42.796875 L 94.789062 42.796875 Z M 96.691406 42.796875 L 96.691406 39.878906 L 97.453125 39.878906 L 98.257812 41.839844 L 98.292969 41.839844 L 99.097656 39.878906 L 99.855469 39.878906 L 99.855469 42.796875 L 99.257812 42.796875 L 99.257812 40.898438 L 99.234375 40.898438 L 98.476562 42.785156 L 98.070312 42.785156 L 97.3125 40.890625 L 97.289062 40.890625 L 97.289062 42.796875 Z M 96.691406 42.796875 "/>
</g>
<g clip-path="url(#clip2)" clip-rule="nonzero">
<path style=" stroke:none;fill-rule:nonzero;fill:rgb(33.333333%,41.176471%,43.921569%);fill-opacity:1;" d="M 25.554688 52.988281 L 23.667969 52.988281 L 23.667969 40.289062 L 29.445312 47.851562 L 35.113281 40.289062 L 35.113281 52.988281 L 33.144531 52.988281 L 33.144531 48.386719 C 33.144531 47.996094 33.152344 47.566406 33.164062 47.09375 C 33.179688 46.625 33.21875 46.085938 33.28125 45.476562 C 33 45.96875 32.726562 46.394531 32.464844 46.753906 C 32.199219 47.113281 31.957031 47.445312 31.742188 47.757812 L 29.40625 50.980469 L 26.984375 47.757812 C 26.769531 47.457031 26.523438 47.117188 26.25 46.734375 C 25.976562 46.351562 25.703125 45.925781 25.429688 45.464844 C 25.496094 46.070312 25.53125 46.613281 25.539062 47.085938 C 25.550781 47.5625 25.554688 47.996094 25.554688 48.386719 Z M 40.890625 53.207031 C 40.316406 53.207031 39.773438 53.066406 39.269531 52.78125 C 38.761719 52.5 38.355469 52.085938 38.042969 51.546875 C 37.726562 51.003906 37.570312 50.355469 37.570312 49.601562 L 37.570312 44.792969 L 39.492188 44.792969 L 39.492188 49.339844 C 39.492188 49.898438 39.660156 50.386719 39.992188 50.808594 C 40.324219 51.234375 40.792969 51.445312 41.394531 51.445312 C 41.886719 51.445312 42.324219 51.265625 42.710938 50.910156 C 43.097656 50.554688 43.292969 50.042969 43.292969 49.367188 L 43.292969 44.792969 L 45.214844 44.792969 L 45.214844 52.988281 L 43.453125 52.988281 L 43.453125 51.894531 C 43.164062 52.3125 42.792969 52.636719 42.339844 52.863281 C 41.890625 53.09375 41.410156 53.207031 40.890625 53.207031 Z M 49.351562 52.988281 L 47.429688 52.988281 L 47.429688 44.792969 L 49.175781 44.792969 L 49.175781 45.898438 C 49.476562 45.472656 49.851562 45.144531 50.300781 44.917969 C 50.75 44.6875 51.242188 44.574219 51.773438 44.574219 C 52.355469 44.574219 52.894531 44.714844 53.394531 45 C 53.898438 45.28125 54.300781 45.6875 54.613281 46.226562 C 54.921875 46.765625 55.074219 47.414062 55.074219 48.179688 L 55.074219 52.988281 L 53.148438 52.988281 L 53.148438 48.441406 C 53.148438 47.882812 52.984375 47.394531 52.65625 46.96875 C 52.328125 46.546875 51.859375 46.335938 51.253906 46.335938 C 50.761719 46.335938 50.320312 46.507812 49.933594 46.855469 C 49.546875 47.203125 49.351562 47.714844 49.351562 48.398438 Z M 61.015625 53.207031 C 60.214844 53.207031 59.480469 53.011719 58.816406 52.625 C 58.152344 52.238281 57.621094 51.714844 57.226562 51.058594 C 56.832031 50.40625 56.632812 49.679688 56.632812 48.890625 C 56.632812 48.089844 56.832031 47.363281 57.226562 46.714844 C 57.621094 46.0625 58.152344 45.542969 58.816406 45.15625 C 59.480469 44.769531 60.214844 44.574219 61.015625 44.574219 C 61.597656 44.574219 62.144531 44.671875 62.65625 44.871094 C 63.164062 45.0625 63.613281 45.339844 64.007812 45.695312 L 63.472656 47.839844 C 63.246094 47.417969 62.921875 47.0625 62.503906 46.773438 C 62.085938 46.480469 61.601562 46.335938 61.058594 46.335938 C 60.582031 46.335938 60.152344 46.449219 59.765625 46.679688 C 59.378906 46.90625 59.074219 47.214844 58.851562 47.597656 C 58.628906 47.988281 58.515625 48.417969 58.515625 48.890625 C 58.515625 49.351562 58.628906 49.777344 58.851562 50.167969 C 59.074219 50.554688 59.378906 50.863281 59.765625 51.09375 C 60.152344 51.328125 60.582031 51.445312 61.058594 51.445312 C 61.601562 51.445312 62.085938 51.300781 62.503906 51.007812 C 62.921875 50.714844 63.246094 50.359375 63.472656 49.941406 L 64.007812 52.070312 C 63.613281 52.425781 63.164062 52.707031 62.65625 52.90625 C 62.144531 53.105469 61.597656 53.207031 61.015625 53.207031 Z M 67.445312 52.988281 L 65.523438 52.988281 L 65.523438 39.878906 L 67.445312 39.878906 L 67.445312 45.679688 C 67.746094 45.316406 68.105469 45.039062 68.527344 44.855469 C 68.941406 44.667969 69.390625 44.574219 69.863281 44.574219 C 70.445312 44.574219 70.988281 44.714844 71.488281 45 C 71.988281 45.28125 72.394531 45.6875 72.703125 46.226562 C 73.011719 46.765625 73.167969 47.414062 73.167969 48.179688 L 73.167969 52.988281 L 71.242188 52.988281 L 71.242188 48.441406 C 71.242188 47.882812 71.082031 47.394531 70.753906 46.96875 C 70.425781 46.546875 69.957031 46.335938 69.34375 46.335938 C 68.855469 46.335938 68.414062 46.507812 68.027344 46.855469 C 67.640625 47.203125 67.445312 47.714844 67.445312 48.398438 Z M 76.050781 53.207031 C 75.695312 53.207031 75.394531 53.085938 75.152344 52.835938 C 74.914062 52.589844 74.792969 52.289062 74.792969 51.9375 C 74.792969 51.574219 74.914062 51.269531 75.152344 51.027344 C 75.394531 50.789062 75.695312 50.667969 76.050781 50.667969 C 76.421875 50.667969 76.730469 50.789062 76.96875 51.03125 C 77.210938 51.277344 77.332031 51.582031 77.332031 51.9375 C 77.332031 52.289062 77.210938 52.589844 76.96875 52.835938 C 76.730469 53.085938 76.421875 53.207031 76.050781 53.207031 Z M 81.046875 52.988281 L 79.121094 52.988281 L 79.121094 44.792969 L 81.046875 44.792969 Z M 80.089844 43.453125 C 79.78125 43.453125 79.515625 43.34375 79.296875 43.128906 C 79.078125 42.910156 78.96875 42.644531 78.96875 42.335938 C 78.96875 42.007812 79.078125 41.738281 79.296875 41.523438 C 79.515625 41.308594 79.78125 41.199219 80.089844 41.199219 C 80.417969 41.199219 80.6875 41.308594 80.902344 41.53125 C 81.117188 41.746094 81.222656 42.015625 81.222656 42.335938 C 81.222656 42.644531 81.113281 42.910156 80.894531 43.128906 C 80.679688 43.34375 80.410156 43.453125 80.089844 43.453125 Z M 85.199219 52.988281 L 83.269531 52.988281 L 83.269531 44.792969 L 85.015625 44.792969 L 85.015625 45.898438 C 85.320312 45.472656 85.695312 45.144531 86.144531 44.917969 C 86.597656 44.6875 87.085938 44.574219 87.613281 44.574219 C 88.195312 44.574219 88.738281 44.714844 89.238281 45 C 89.738281 45.28125 90.144531 45.6875 90.453125 46.226562 C 90.761719 46.765625 90.917969 47.414062 90.917969 48.179688 L 90.917969 52.988281 L 88.992188 52.988281 L 88.992188 48.441406 C 88.992188 47.882812 88.828125 47.394531 88.5 46.96875 C 88.175781 46.546875 87.703125 46.335938 87.09375 46.335938 C 86.605469 46.335938 86.164062 46.507812 85.777344 46.855469 C 85.390625 47.203125 85.199219 47.714844 85.199219 48.398438 Z M 85.199219 52.988281 "/>
</g>
<g clip-path="url(#clip3)" clip-rule="nonzero">
<path style=" stroke:none;fill-rule:nonzero;fill:rgb(33.333333%,41.176471%,43.921569%);fill-opacity:1;" d="M 33.320312 56.914062 L 33.320312 58.851562 L 33.816406 58.851562 C 33.949219 58.851562 34.078125 58.835938 34.195312 58.800781 C 34.316406 58.765625 34.417969 58.710938 34.507812 58.632812 C 34.597656 58.558594 34.667969 58.457031 34.71875 58.332031 C 34.769531 58.207031 34.796875 58.054688 34.796875 57.875 C 34.796875 57.710938 34.773438 57.566406 34.726562 57.445312 C 34.679688 57.324219 34.613281 57.226562 34.53125 57.148438 C 34.445312 57.066406 34.34375 57.011719 34.222656 56.972656 C 34.101562 56.933594 33.964844 56.914062 33.816406 56.914062 Z M 33.011719 59.136719 L 33.011719 56.632812 L 33.816406 56.632812 C 34.015625 56.632812 34.195312 56.65625 34.355469 56.707031 C 34.515625 56.753906 34.652344 56.832031 34.765625 56.933594 C 34.882812 57.035156 34.972656 57.167969 35.035156 57.324219 C 35.09375 57.480469 35.125 57.664062 35.125 57.875 C 35.125 58.09375 35.09375 58.277344 35.023438 58.4375 C 34.957031 58.59375 34.863281 58.726562 34.746094 58.828125 C 34.628906 58.933594 34.488281 59.011719 34.332031 59.058594 C 34.171875 59.109375 34 59.136719 33.816406 59.136719 Z M 36.886719 58.847656 L 36.941406 59.089844 C 36.886719 59.109375 36.828125 59.125 36.769531 59.136719 C 36.707031 59.148438 36.644531 59.160156 36.570312 59.167969 C 36.5 59.179688 36.421875 59.183594 36.34375 59.183594 C 36.222656 59.183594 36.109375 59.167969 36.003906 59.132812 C 35.898438 59.097656 35.808594 59.042969 35.730469 58.96875 C 35.648438 58.890625 35.589844 58.792969 35.542969 58.671875 C 35.496094 58.550781 35.476562 58.402344 35.476562 58.226562 C 35.476562 58.066406 35.496094 57.925781 35.542969 57.804688 C 35.585938 57.683594 35.644531 57.582031 35.722656 57.5 C 35.800781 57.417969 35.890625 57.355469 35.996094 57.316406 C 36.097656 57.273438 36.210938 57.253906 36.335938 57.253906 C 36.453125 57.253906 36.558594 57.277344 36.644531 57.324219 C 36.734375 57.371094 36.808594 57.433594 36.863281 57.511719 C 36.921875 57.589844 36.964844 57.683594 36.992188 57.792969 C 37.019531 57.898438 37.035156 58.007812 37.035156 58.125 L 36.980469 58.289062 L 35.792969 58.289062 C 35.792969 58.363281 35.804688 58.441406 35.824219 58.515625 C 35.84375 58.589844 35.878906 58.660156 35.925781 58.722656 C 35.972656 58.78125 36.035156 58.832031 36.113281 58.871094 C 36.1875 58.90625 36.285156 58.925781 36.398438 58.925781 C 36.472656 58.925781 36.539062 58.921875 36.601562 58.914062 C 36.664062 58.90625 36.714844 58.894531 36.761719 58.882812 C 36.808594 58.875 36.847656 58.859375 36.886719 58.847656 Z M 35.804688 58.054688 L 36.730469 58.054688 C 36.730469 58.035156 36.726562 58 36.71875 57.9375 C 36.710938 57.878906 36.695312 57.820312 36.667969 57.753906 C 36.640625 57.691406 36.597656 57.636719 36.542969 57.585938 C 36.488281 57.535156 36.414062 57.511719 36.320312 57.511719 C 36.214844 57.511719 36.132812 57.53125 36.066406 57.574219 C 36 57.617188 35.949219 57.667969 35.910156 57.726562 C 35.871094 57.785156 35.84375 57.84375 35.828125 57.90625 C 35.8125 57.96875 35.804688 58.015625 35.804688 58.054688 Z M 37.433594 59.136719 L 37.433594 56.386719 L 37.726562 56.355469 L 37.726562 59.136719 Z M 38.257812 59.136719 L 38.257812 57.285156 L 38.550781 57.253906 L 38.550781 59.136719 Z M 38.207031 56.761719 C 38.207031 56.703125 38.226562 56.65625 38.265625 56.621094 C 38.304688 56.582031 38.351562 56.5625 38.40625 56.5625 C 38.464844 56.5625 38.515625 56.582031 38.554688 56.621094 C 38.597656 56.65625 38.617188 56.703125 38.617188 56.761719 C 38.617188 56.816406 38.597656 56.863281 38.554688 56.902344 C 38.515625 56.941406 38.464844 56.960938 38.40625 56.960938 C 38.351562 56.960938 38.304688 56.941406 38.265625 56.902344 C 38.226562 56.863281 38.207031 56.816406 38.207031 56.761719 Z M 40.28125 57.3125 L 40.222656 57.558594 C 40.183594 57.546875 40.125 57.539062 40.050781 57.527344 C 39.976562 57.515625 39.902344 57.511719 39.828125 57.511719 C 39.71875 57.511719 39.628906 57.53125 39.558594 57.574219 C 39.488281 57.621094 39.433594 57.675781 39.394531 57.746094 C 39.355469 57.816406 39.328125 57.894531 39.3125 57.976562 C 39.296875 58.0625 39.292969 58.144531 39.292969 58.226562 C 39.292969 58.351562 39.308594 58.457031 39.339844 58.546875 C 39.371094 58.636719 39.414062 58.707031 39.464844 58.765625 C 39.519531 58.820312 39.578125 58.863281 39.648438 58.886719 C 39.714844 58.914062 39.789062 58.925781 39.863281 58.925781 C 39.914062 58.925781 39.964844 58.921875 40.011719 58.917969 C 40.058594 58.910156 40.105469 58.902344 40.144531 58.894531 C 40.183594 58.886719 40.222656 58.875 40.261719 58.863281 L 40.320312 59.109375 C 40.265625 59.125 40.21875 59.136719 40.175781 59.148438 C 40.132812 59.15625 40.078125 59.164062 40.019531 59.171875 C 39.960938 59.179688 39.894531 59.183594 39.828125 59.183594 C 39.691406 59.183594 39.574219 59.167969 39.46875 59.132812 C 39.363281 59.097656 39.273438 59.042969 39.203125 58.96875 C 39.128906 58.890625 39.074219 58.792969 39.035156 58.667969 C 39 58.546875 38.980469 58.398438 38.980469 58.222656 C 38.980469 58.050781 39.003906 57.902344 39.050781 57.78125 C 39.097656 57.65625 39.160156 57.554688 39.238281 57.476562 C 39.316406 57.402344 39.410156 57.34375 39.511719 57.308594 C 39.613281 57.269531 39.71875 57.253906 39.828125 57.253906 C 39.886719 57.253906 39.941406 57.257812 40 57.261719 C 40.054688 57.269531 40.101562 57.273438 40.144531 57.28125 C 40.191406 57.292969 40.238281 57.300781 40.28125 57.3125 Z M 40.683594 59.136719 L 40.683594 57.285156 L 40.976562 57.253906 L 40.976562 59.136719 Z M 40.632812 56.761719 C 40.632812 56.703125 40.652344 56.65625 40.691406 56.621094 C 40.730469 56.582031 40.777344 56.5625 40.832031 56.5625 C 40.890625 56.5625 40.941406 56.582031 40.980469 56.621094 C 41.023438 56.65625 41.042969 56.703125 41.042969 56.761719 C 41.042969 56.816406 41.023438 56.863281 40.980469 56.902344 C 40.941406 56.941406 40.890625 56.960938 40.832031 56.960938 C 40.777344 56.960938 40.730469 56.941406 40.691406 56.902344 C 40.652344 56.863281 40.632812 56.816406 40.632812 56.761719 Z M 41.714844 58.222656 C 41.714844 58.460938 41.765625 58.636719 41.871094 58.75 C 41.980469 58.867188 42.125 58.925781 42.304688 58.925781 C 42.484375 58.925781 42.621094 58.867188 42.722656 58.753906 C 42.824219 58.640625 42.875 58.464844 42.875 58.238281 C 42.875 57.992188 42.820312 57.808594 42.714844 57.691406 C 42.605469 57.570312 42.460938 57.511719 42.277344 57.511719 C 42.09375 57.511719 41.953125 57.570312 41.859375 57.6875 C 41.761719 57.804688 41.714844 57.984375 41.714844 58.222656 Z M 41.402344 58.21875 C 41.402344 58.03125 41.429688 57.878906 41.488281 57.753906 C 41.546875 57.628906 41.621094 57.53125 41.714844 57.457031 C 41.804688 57.382812 41.902344 57.328125 42.003906 57.296875 C 42.109375 57.269531 42.207031 57.253906 42.300781 57.253906 C 42.390625 57.253906 42.484375 57.265625 42.589844 57.292969 C 42.691406 57.324219 42.789062 57.375 42.875 57.445312 C 42.964844 57.519531 43.039062 57.613281 43.097656 57.734375 C 43.15625 57.855469 43.183594 58.011719 43.183594 58.195312 C 43.183594 58.390625 43.15625 58.550781 43.09375 58.675781 C 43.035156 58.804688 42.960938 58.90625 42.871094 58.980469 C 42.777344 59.054688 42.679688 59.105469 42.574219 59.136719 C 42.472656 59.167969 42.371094 59.183594 42.28125 59.183594 C 42.1875 59.183594 42.089844 59.167969 41.988281 59.140625 C 41.886719 59.109375 41.792969 59.058594 41.703125 58.988281 C 41.617188 58.914062 41.546875 58.816406 41.488281 58.691406 C 41.429688 58.566406 41.402344 58.410156 41.402344 58.21875 Z M 44.738281 59.164062 L 44.714844 58.933594 L 44.707031 58.933594 C 44.683594 58.949219 44.652344 58.972656 44.613281 59 C 44.570312 59.03125 44.523438 59.058594 44.46875 59.085938 C 44.414062 59.109375 44.355469 59.132812 44.292969 59.152344 C 44.226562 59.171875 44.160156 59.183594 44.09375 59.183594 C 44.003906 59.183594 43.925781 59.171875 43.863281 59.148438 C 43.800781 59.125 43.75 59.085938 43.710938 59.03125 C 43.671875 58.980469 43.640625 58.90625 43.625 58.820312 C 43.609375 58.730469 43.597656 58.621094 43.597656 58.488281 L 43.597656 57.289062 L 43.894531 57.289062 L 43.894531 58.445312 C 43.894531 58.519531 43.894531 58.585938 43.894531 58.644531 C 43.898438 58.703125 43.90625 58.753906 43.921875 58.792969 C 43.9375 58.835938 43.960938 58.867188 43.992188 58.890625 C 44.027344 58.914062 44.074219 58.925781 44.136719 58.925781 C 44.199219 58.925781 44.265625 58.914062 44.332031 58.886719 C 44.402344 58.859375 44.464844 58.828125 44.519531 58.792969 C 44.585938 58.753906 44.652344 58.710938 44.714844 58.664062 L 44.714844 57.289062 L 45.007812 57.289062 L 45.007812 58.898438 C 45.011719 58.984375 45.015625 59.066406 45.027344 59.136719 Z M 46.589844 57.332031 L 46.539062 57.589844 C 46.4375 57.558594 46.34375 57.539062 46.265625 57.527344 C 46.1875 57.515625 46.113281 57.511719 46.046875 57.511719 C 45.960938 57.511719 45.890625 57.53125 45.832031 57.574219 C 45.773438 57.613281 45.746094 57.667969 45.746094 57.734375 C 45.75 57.792969 45.773438 57.84375 45.824219 57.882812 C 45.871094 57.925781 45.929688 57.964844 45.992188 57.996094 C 46.058594 58.027344 46.132812 58.066406 46.210938 58.105469 C 46.289062 58.144531 46.363281 58.1875 46.433594 58.238281 C 46.503906 58.285156 46.5625 58.34375 46.605469 58.414062 C 46.648438 58.480469 46.671875 58.5625 46.675781 58.660156 C 46.671875 58.761719 46.648438 58.847656 46.605469 58.914062 C 46.5625 58.980469 46.507812 59.035156 46.441406 59.074219 C 46.375 59.117188 46.300781 59.144531 46.222656 59.160156 C 46.144531 59.175781 46.070312 59.183594 46.003906 59.183594 C 45.914062 59.183594 45.824219 59.179688 45.730469 59.167969 C 45.636719 59.160156 45.535156 59.136719 45.425781 59.105469 L 45.480469 58.84375 C 45.59375 58.871094 45.691406 58.894531 45.78125 58.90625 C 45.875 58.917969 45.949219 58.925781 46.007812 58.925781 C 46.050781 58.925781 46.09375 58.921875 46.136719 58.910156 C 46.179688 58.902344 46.21875 58.886719 46.253906 58.871094 C 46.285156 58.851562 46.3125 58.828125 46.335938 58.796875 C 46.355469 58.769531 46.367188 58.734375 46.367188 58.699219 C 46.363281 58.628906 46.339844 58.574219 46.296875 58.523438 C 46.253906 58.476562 46.195312 58.433594 46.125 58.394531 C 46.054688 58.359375 45.980469 58.320312 45.902344 58.28125 C 45.824219 58.246094 45.746094 58.199219 45.679688 58.148438 C 45.609375 58.101562 45.550781 58.039062 45.503906 57.96875 C 45.457031 57.902344 45.433594 57.816406 45.433594 57.710938 C 45.433594 57.636719 45.453125 57.574219 45.492188 57.515625 C 45.527344 57.457031 45.578125 57.410156 45.636719 57.371094 C 45.699219 57.335938 45.765625 57.304688 45.835938 57.285156 C 45.910156 57.261719 45.976562 57.253906 46.046875 57.253906 C 46.117188 57.253906 46.199219 57.257812 46.285156 57.269531 C 46.375 57.28125 46.476562 57.300781 46.589844 57.332031 Z M 49.898438 57.902344 C 49.898438 57.574219 49.824219 57.320312 49.671875 57.148438 C 49.519531 56.980469 49.3125 56.894531 49.054688 56.894531 C 48.925781 56.894531 48.808594 56.914062 48.703125 56.953125 C 48.59375 56.996094 48.503906 57.054688 48.425781 57.136719 C 48.351562 57.214844 48.289062 57.316406 48.246094 57.4375 C 48.203125 57.558594 48.183594 57.703125 48.183594 57.867188 C 48.183594 58.195312 48.257812 58.449219 48.410156 58.625 C 48.566406 58.800781 48.769531 58.890625 49.027344 58.890625 C 49.152344 58.890625 49.273438 58.871094 49.378906 58.828125 C 49.488281 58.789062 49.578125 58.726562 49.65625 58.644531 C 49.734375 58.5625 49.792969 58.457031 49.835938 58.335938 C 49.878906 58.214844 49.898438 58.070312 49.898438 57.902344 Z M 49.203125 59.175781 C 49.171875 59.179688 49.144531 59.183594 49.125 59.183594 C 49.105469 59.183594 49.082031 59.183594 49.050781 59.183594 C 48.921875 59.183594 48.785156 59.164062 48.644531 59.125 C 48.5 59.085938 48.367188 59.015625 48.25 58.917969 C 48.128906 58.820312 48.03125 58.6875 47.953125 58.519531 C 47.875 58.351562 47.835938 58.140625 47.835938 57.882812 C 47.835938 57.648438 47.871094 57.445312 47.945312 57.28125 C 48.019531 57.117188 48.113281 56.988281 48.230469 56.886719 C 48.347656 56.785156 48.480469 56.710938 48.625 56.667969 C 48.769531 56.621094 48.910156 56.601562 49.050781 56.601562 C 49.191406 56.601562 49.332031 56.617188 49.476562 56.65625 C 49.617188 56.695312 49.746094 56.761719 49.859375 56.859375 C 49.976562 56.957031 50.070312 57.089844 50.140625 57.253906 C 50.210938 57.417969 50.25 57.632812 50.25 57.886719 C 50.25 58.054688 50.230469 58.203125 50.191406 58.328125 C 50.152344 58.457031 50.101562 58.570312 50.035156 58.667969 C 49.972656 58.765625 49.898438 58.84375 49.816406 58.910156 C 49.734375 58.976562 49.648438 59.027344 49.558594 59.066406 C 49.597656 59.089844 49.644531 59.117188 49.703125 59.152344 C 49.757812 59.191406 49.816406 59.226562 49.878906 59.261719 C 49.941406 59.296875 50 59.328125 50.058594 59.351562 C 50.117188 59.375 50.167969 59.390625 50.214844 59.390625 C 50.261719 59.390625 50.304688 59.382812 50.351562 59.367188 C 50.402344 59.351562 50.445312 59.332031 50.488281 59.304688 L 50.625 59.542969 C 50.566406 59.578125 50.503906 59.609375 50.429688 59.636719 C 50.359375 59.667969 50.28125 59.683594 50.203125 59.683594 C 50.144531 59.683594 50.082031 59.667969 50.007812 59.640625 C 49.933594 59.613281 49.855469 59.574219 49.769531 59.527344 C 49.683594 59.480469 49.59375 59.429688 49.496094 59.367188 C 49.402344 59.304688 49.304688 59.242188 49.203125 59.175781 Z M 51.824219 59.164062 L 51.800781 58.933594 L 51.792969 58.933594 C 51.769531 58.949219 51.738281 58.972656 51.699219 59 C 51.65625 59.03125 51.609375 59.058594 51.554688 59.085938 C 51.5 59.109375 51.441406 59.132812 51.378906 59.152344 C 51.3125 59.171875 51.246094 59.183594 51.179688 59.183594 C 51.089844 59.183594 51.011719 59.171875 50.949219 59.148438 C 50.886719 59.125 50.835938 59.085938 50.796875 59.03125 C 50.757812 58.980469 50.726562 58.90625 50.710938 58.820312 C 50.695312 58.730469 50.683594 58.621094 50.683594 58.488281 L 50.683594 57.289062 L 50.980469 57.289062 L 50.980469 58.445312 C 50.980469 58.519531 50.980469 58.585938 50.980469 58.644531 C 50.984375 58.703125 50.992188 58.753906 51.007812 58.792969 C 51.023438 58.835938 51.046875 58.867188 51.078125 58.890625 C 51.113281 58.914062 51.160156 58.925781 51.222656 58.925781 C 51.285156 58.925781 51.351562 58.914062 51.417969 58.886719 C 51.488281 58.859375 51.550781 58.828125 51.605469 58.792969 C 51.671875 58.753906 51.738281 58.710938 51.800781 58.664062 L 51.800781 57.289062 L 52.09375 57.289062 L 52.09375 58.898438 C 52.097656 58.984375 52.101562 59.066406 52.113281 59.136719 Z M 53.652344 58.707031 L 53.652344 58.289062 C 53.605469 58.289062 53.558594 58.292969 53.515625 58.296875 C 53.46875 58.296875 53.425781 58.300781 53.382812 58.304688 C 53.339844 58.308594 53.304688 58.3125 53.269531 58.316406 C 53.09375 58.339844 52.96875 58.378906 52.894531 58.433594 C 52.820312 58.488281 52.785156 58.566406 52.785156 58.667969 C 52.785156 58.753906 52.8125 58.820312 52.863281 58.863281 C 52.914062 58.90625 52.984375 58.925781 53.070312 58.925781 C 53.1875 58.925781 53.292969 58.90625 53.382812 58.867188 C 53.476562 58.824219 53.566406 58.773438 53.652344 58.707031 Z M 53.6875 59.164062 L 53.648438 58.964844 C 53.535156 59.03125 53.429688 59.082031 53.328125 59.121094 C 53.230469 59.164062 53.125 59.183594 53.007812 59.183594 C 52.84375 59.183594 52.714844 59.144531 52.617188 59.0625 C 52.519531 58.984375 52.472656 58.851562 52.472656 58.667969 C 52.472656 58.574219 52.496094 58.492188 52.546875 58.421875 C 52.59375 58.347656 52.660156 58.289062 52.738281 58.242188 C 52.816406 58.195312 52.90625 58.15625 53.007812 58.128906 C 53.109375 58.101562 53.210938 58.085938 53.316406 58.078125 C 53.359375 58.074219 53.417969 58.070312 53.488281 58.066406 C 53.558594 58.0625 53.613281 58.058594 53.652344 58.058594 C 53.652344 57.972656 53.652344 57.894531 53.648438 57.828125 C 53.640625 57.761719 53.628906 57.703125 53.601562 57.65625 C 53.578125 57.605469 53.542969 57.570312 53.496094 57.546875 C 53.445312 57.523438 53.378906 57.511719 53.289062 57.511719 C 53.21875 57.511719 53.152344 57.515625 53.085938 57.523438 C 53.019531 57.53125 52.960938 57.539062 52.910156 57.550781 C 52.847656 57.5625 52.792969 57.574219 52.738281 57.589844 L 52.679688 57.335938 C 52.742188 57.324219 52.808594 57.308594 52.878906 57.296875 C 52.941406 57.285156 53.011719 57.273438 53.09375 57.265625 C 53.171875 57.257812 53.261719 57.253906 53.351562 57.253906 C 53.476562 57.253906 53.578125 57.269531 53.65625 57.308594 C 53.734375 57.34375 53.792969 57.394531 53.835938 57.457031 C 53.878906 57.519531 53.90625 57.589844 53.925781 57.667969 C 53.941406 57.75 53.949219 57.832031 53.949219 57.921875 L 53.949219 58.800781 C 53.949219 58.835938 53.949219 58.871094 53.949219 58.910156 C 53.949219 58.949219 53.953125 58.984375 53.957031 59.023438 C 53.960938 59.058594 53.964844 59.097656 53.96875 59.136719 Z M 54.464844 59.136719 L 54.464844 56.386719 L 54.757812 56.355469 L 54.757812 59.136719 Z M 55.289062 59.136719 L 55.289062 57.285156 L 55.582031 57.253906 L 55.582031 59.136719 Z M 55.238281 56.761719 C 55.238281 56.703125 55.257812 56.65625 55.296875 56.621094 C 55.335938 56.582031 55.382812 56.5625 55.4375 56.5625 C 55.496094 56.5625 55.546875 56.582031 55.585938 56.621094 C 55.625 56.65625 55.648438 56.703125 55.648438 56.761719 C 55.648438 56.816406 55.625 56.863281 55.585938 56.902344 C 55.546875 56.941406 55.496094 56.960938 55.4375 56.960938 C 55.382812 56.960938 55.335938 56.941406 55.296875 56.902344 C 55.257812 56.863281 55.238281 56.816406 55.238281 56.761719 Z M 56.246094 56.777344 L 56.539062 56.738281 L 56.539062 57.289062 L 57.070312 57.289062 L 57.070312 57.527344 L 56.539062 57.527344 L 56.539062 58.507812 C 56.539062 58.589844 56.539062 58.65625 56.542969 58.710938 C 56.546875 58.765625 56.554688 58.808594 56.566406 58.839844 C 56.578125 58.871094 56.597656 58.894531 56.617188 58.90625 C 56.640625 58.917969 56.667969 58.925781 56.703125 58.925781 C 56.796875 58.925781 56.902344 58.890625 57.027344 58.824219 L 57.113281 59.046875 C 57.035156 59.101562 56.957031 59.136719 56.886719 59.15625 C 56.820312 59.175781 56.75 59.183594 56.679688 59.183594 C 56.519531 59.183594 56.40625 59.136719 56.34375 59.046875 C 56.277344 58.953125 56.246094 58.800781 56.246094 58.589844 L 56.246094 57.527344 L 55.90625 57.527344 L 55.90625 57.289062 L 56.246094 57.289062 Z M 57.945312 59.089844 L 57.207031 57.289062 L 57.519531 57.289062 L 57.863281 58.121094 C 57.898438 58.203125 57.929688 58.285156 57.957031 58.363281 C 57.984375 58.445312 58.007812 58.519531 58.03125 58.582031 C 58.058594 58.65625 58.082031 58.730469 58.101562 58.800781 L 58.105469 58.800781 C 58.125 58.730469 58.152344 58.65625 58.179688 58.582031 C 58.199219 58.519531 58.226562 58.445312 58.253906 58.363281 C 58.285156 58.285156 58.316406 58.203125 58.347656 58.121094 L 58.667969 57.289062 L 58.976562 57.289062 L 58.101562 59.492188 C 58.066406 59.582031 58.023438 59.660156 57.96875 59.726562 C 57.914062 59.792969 57.859375 59.847656 57.808594 59.890625 C 57.746094 59.941406 57.683594 59.988281 57.617188 60.023438 L 57.472656 59.769531 C 57.523438 59.746094 57.574219 59.714844 57.617188 59.679688 C 57.65625 59.648438 57.695312 59.609375 57.734375 59.558594 C 57.773438 59.511719 57.804688 59.453125 57.828125 59.390625 Z M 59.039062 59.5625 L 59.164062 58.660156 L 59.476562 58.660156 L 59.273438 59.605469 Z M 61.148438 56.914062 L 61.148438 58.851562 L 61.644531 58.851562 C 61.78125 58.851562 61.90625 58.835938 62.027344 58.800781 C 62.144531 58.765625 62.25 58.710938 62.335938 58.632812 C 62.425781 58.558594 62.496094 58.457031 62.546875 58.332031 C 62.601562 58.207031 62.625 58.054688 62.625 57.875 C 62.625 57.710938 62.601562 57.566406 62.554688 57.445312 C 62.507812 57.324219 62.445312 57.226562 62.359375 57.148438 C 62.273438 57.066406 62.171875 57.011719 62.050781 56.972656 C 61.929688 56.933594 61.792969 56.914062 61.644531 56.914062 Z M 60.84375 59.136719 L 60.84375 56.632812 L 61.644531 56.632812 C 61.84375 56.632812 62.023438 56.65625 62.183594 56.707031 C 62.34375 56.753906 62.480469 56.832031 62.597656 56.933594 C 62.710938 57.035156 62.800781 57.167969 62.863281 57.324219 C 62.925781 57.480469 62.957031 57.664062 62.957031 57.875 C 62.957031 58.09375 62.921875 58.277344 62.851562 58.4375 C 62.785156 58.59375 62.691406 58.726562 62.574219 58.828125 C 62.457031 58.933594 62.320312 59.011719 62.160156 59.058594 C 62 59.109375 61.828125 59.136719 61.644531 59.136719 Z M 64.71875 58.847656 L 64.773438 59.089844 C 64.714844 59.109375 64.65625 59.125 64.597656 59.136719 C 64.539062 59.148438 64.472656 59.160156 64.398438 59.167969 C 64.328125 59.179688 64.253906 59.183594 64.175781 59.183594 C 64.050781 59.183594 63.9375 59.167969 63.832031 59.132812 C 63.726562 59.097656 63.636719 59.042969 63.558594 58.96875 C 63.480469 58.890625 63.417969 58.792969 63.371094 58.671875 C 63.328125 58.550781 63.304688 58.402344 63.304688 58.226562 C 63.304688 58.066406 63.328125 57.925781 63.371094 57.804688 C 63.414062 57.683594 63.476562 57.582031 63.550781 57.5 C 63.628906 57.417969 63.71875 57.355469 63.824219 57.316406 C 63.929688 57.273438 64.039062 57.253906 64.164062 57.253906 C 64.28125 57.253906 64.386719 57.277344 64.476562 57.324219 C 64.5625 57.371094 64.636719 57.433594 64.695312 57.511719 C 64.75 57.589844 64.792969 57.683594 64.824219 57.792969 C 64.851562 57.898438 64.863281 58.007812 64.863281 58.125 L 64.808594 58.289062 L 63.625 58.289062 C 63.625 58.363281 63.632812 58.441406 63.652344 58.515625 C 63.671875 58.589844 63.707031 58.660156 63.753906 58.722656 C 63.800781 58.78125 63.863281 58.832031 63.941406 58.871094 C 64.019531 58.90625 64.113281 58.925781 64.230469 58.925781 C 64.300781 58.925781 64.371094 58.921875 64.429688 58.914062 C 64.492188 58.90625 64.546875 58.894531 64.589844 58.882812 C 64.636719 58.875 64.679688 58.859375 64.71875 58.847656 Z M 63.632812 58.054688 L 64.558594 58.054688 C 64.558594 58.035156 64.554688 58 64.546875 57.9375 C 64.542969 57.878906 64.523438 57.820312 64.496094 57.753906 C 64.46875 57.691406 64.429688 57.636719 64.371094 57.585938 C 64.316406 57.535156 64.242188 57.511719 64.148438 57.511719 C 64.046875 57.511719 63.960938 57.53125 63.894531 57.574219 C 63.828125 57.617188 63.777344 57.667969 63.738281 57.726562 C 63.699219 57.785156 63.671875 57.84375 63.65625 57.90625 C 63.640625 57.96875 63.632812 58.015625 63.632812 58.054688 Z M 65.265625 59.136719 L 65.265625 56.386719 L 65.558594 56.355469 L 65.558594 59.136719 Z M 66.085938 59.136719 L 66.085938 57.285156 L 66.378906 57.253906 L 66.378906 59.136719 Z M 66.039062 56.761719 C 66.039062 56.703125 66.058594 56.65625 66.09375 56.621094 C 66.132812 56.582031 66.179688 56.5625 66.238281 56.5625 C 66.296875 56.5625 66.34375 56.582031 66.386719 56.621094 C 66.425781 56.65625 66.445312 56.703125 66.445312 56.761719 C 66.445312 56.816406 66.425781 56.863281 66.386719 56.902344 C 66.34375 56.941406 66.296875 56.960938 66.238281 56.960938 C 66.179688 56.960938 66.132812 56.941406 66.09375 56.902344 C 66.058594 56.863281 66.039062 56.816406 66.039062 56.761719 Z M 67.359375 59.136719 L 66.679688 57.289062 L 67.003906 57.289062 L 67.449219 58.59375 L 67.53125 58.882812 L 67.535156 58.882812 L 67.621094 58.59375 L 68.097656 57.289062 L 68.40625 57.289062 L 67.6875 59.136719 Z M 69.992188 58.847656 L 70.050781 59.089844 C 69.992188 59.109375 69.933594 59.125 69.875 59.136719 C 69.816406 59.148438 69.75 59.160156 69.675781 59.167969 C 69.605469 59.179688 69.527344 59.183594 69.449219 59.183594 C 69.328125 59.183594 69.214844 59.167969 69.109375 59.132812 C 69.003906 59.097656 68.914062 59.042969 68.835938 58.96875 C 68.757812 58.890625 68.695312 58.792969 68.648438 58.671875 C 68.605469 58.550781 68.582031 58.402344 68.582031 58.226562 C 68.582031 58.066406 68.601562 57.925781 68.648438 57.804688 C 68.691406 57.683594 68.75 57.582031 68.828125 57.5 C 68.90625 57.417969 68.996094 57.355469 69.101562 57.316406 C 69.203125 57.273438 69.316406 57.253906 69.441406 57.253906 C 69.558594 57.253906 69.664062 57.277344 69.75 57.324219 C 69.839844 57.371094 69.914062 57.433594 69.96875 57.511719 C 70.027344 57.589844 70.070312 57.683594 70.097656 57.792969 C 70.125 57.898438 70.140625 58.007812 70.140625 58.125 L 70.085938 58.289062 L 68.898438 58.289062 C 68.898438 58.363281 68.910156 58.441406 68.929688 58.515625 C 68.949219 58.589844 68.984375 58.660156 69.03125 58.722656 C 69.078125 58.78125 69.140625 58.832031 69.21875 58.871094 C 69.296875 58.90625 69.390625 58.925781 69.507812 58.925781 C 69.578125 58.925781 69.648438 58.921875 69.707031 58.914062 C 69.769531 58.90625 69.820312 58.894531 69.867188 58.882812 C 69.914062 58.875 69.953125 58.859375 69.992188 58.847656 Z M 68.910156 58.054688 L 69.835938 58.054688 C 69.835938 58.035156 69.832031 58 69.824219 57.9375 C 69.816406 57.878906 69.800781 57.820312 69.773438 57.753906 C 69.746094 57.691406 69.707031 57.636719 69.648438 57.585938 C 69.59375 57.535156 69.519531 57.511719 69.425781 57.511719 C 69.324219 57.511719 69.238281 57.53125 69.171875 57.574219 C 69.105469 57.617188 69.054688 57.667969 69.015625 57.726562 C 68.976562 57.785156 68.949219 57.84375 68.933594 57.90625 C 68.917969 57.96875 68.910156 58.015625 68.910156 58.054688 Z M 70.542969 59.136719 L 70.542969 57.585938 C 70.542969 57.53125 70.539062 57.441406 70.527344 57.324219 L 70.796875 57.285156 L 70.828125 57.554688 L 70.832031 57.554688 C 70.875 57.496094 70.917969 57.449219 70.960938 57.40625 C 71 57.367188 71.042969 57.328125 71.089844 57.296875 C 71.132812 57.269531 71.179688 57.253906 71.21875 57.253906 C 71.277344 57.25 71.355469 57.257812 71.453125 57.269531 L 71.386719 57.554688 C 71.308594 57.539062 71.25 57.53125 71.21875 57.535156 C 71.179688 57.535156 71.132812 57.554688 71.085938 57.59375 C 71.042969 57.632812 71 57.675781 70.964844 57.71875 C 70.921875 57.773438 70.878906 57.835938 70.839844 57.902344 L 70.839844 59.136719 Z M 73.03125 58.847656 L 73.085938 59.089844 C 73.03125 59.109375 72.972656 59.125 72.914062 59.136719 C 72.851562 59.148438 72.785156 59.160156 72.714844 59.167969 C 72.640625 59.179688 72.566406 59.183594 72.488281 59.183594 C 72.367188 59.183594 72.253906 59.167969 72.148438 59.132812 C 72.042969 59.097656 71.949219 59.042969 71.871094 58.96875 C 71.792969 58.890625 71.730469 58.792969 71.6875 58.671875 C 71.640625 58.550781 71.617188 58.402344 71.617188 58.226562 C 71.617188 58.066406 71.640625 57.925781 71.683594 57.804688 C 71.730469 57.683594 71.789062 57.582031 71.867188 57.5 C 71.945312 57.417969 72.035156 57.355469 72.140625 57.316406 C 72.242188 57.273438 72.355469 57.253906 72.476562 57.253906 C 72.597656 57.253906 72.703125 57.277344 72.789062 57.324219 C 72.878906 57.371094 72.949219 57.433594 73.007812 57.511719 C 73.066406 57.589844 73.109375 57.683594 73.136719 57.792969 C 73.164062 57.898438 73.179688 58.007812 73.179688 58.125 L 73.125 58.289062 L 71.9375 58.289062 C 71.9375 58.363281 71.949219 58.441406 71.96875 58.515625 C 71.988281 58.589844 72.019531 58.660156 72.070312 58.722656 C 72.117188 58.78125 72.179688 58.832031 72.257812 58.871094 C 72.332031 58.90625 72.429688 58.925781 72.542969 58.925781 C 72.617188 58.925781 72.683594 58.921875 72.746094 58.914062 C 72.808594 58.90625 72.859375 58.894531 72.90625 58.882812 C 72.949219 58.875 72.992188 58.859375 73.03125 58.847656 Z M 71.949219 58.054688 L 72.875 58.054688 C 72.875 58.035156 72.871094 58 72.863281 57.9375 C 72.855469 57.878906 72.839844 57.820312 72.8125 57.753906 C 72.785156 57.691406 72.742188 57.636719 72.6875 57.585938 C 72.628906 57.535156 72.554688 57.511719 72.464844 57.511719 C 72.359375 57.511719 72.277344 57.53125 72.210938 57.574219 C 72.144531 57.617188 72.089844 57.667969 72.050781 57.726562 C 72.011719 57.785156 71.984375 57.84375 71.972656 57.90625 C 71.957031 57.96875 71.949219 58.015625 71.949219 58.054688 Z M 74.730469 58.730469 L 74.730469 57.566406 C 74.644531 57.539062 74.574219 57.523438 74.527344 57.519531 C 74.476562 57.511719 74.425781 57.511719 74.375 57.511719 C 74.273438 57.511719 74.183594 57.527344 74.109375 57.566406 C 74.039062 57.601562 73.976562 57.652344 73.929688 57.71875 C 73.882812 57.78125 73.847656 57.855469 73.824219 57.941406 C 73.800781 58.027344 73.792969 58.117188 73.792969 58.210938 C 73.792969 58.296875 73.800781 58.382812 73.820312 58.46875 C 73.835938 58.554688 73.867188 58.628906 73.90625 58.699219 C 73.945312 58.765625 73.992188 58.824219 74.046875 58.863281 C 74.105469 58.90625 74.171875 58.925781 74.25 58.925781 C 74.304688 58.925781 74.359375 58.917969 74.417969 58.898438 C 74.476562 58.878906 74.527344 58.855469 74.578125 58.828125 C 74.625 58.804688 74.675781 58.769531 74.730469 58.730469 Z M 74.765625 59.164062 L 74.734375 58.988281 C 74.679688 59.027344 74.625 59.058594 74.570312 59.085938 C 74.519531 59.113281 74.460938 59.132812 74.398438 59.152344 C 74.335938 59.171875 74.277344 59.183594 74.21875 59.183594 C 73.988281 59.183594 73.808594 59.101562 73.675781 58.9375 C 73.546875 58.777344 73.480469 58.539062 73.480469 58.226562 C 73.480469 58.039062 73.511719 57.882812 73.570312 57.757812 C 73.628906 57.632812 73.703125 57.535156 73.796875 57.460938 C 73.886719 57.386719 73.984375 57.332031 74.085938 57.300781 C 74.191406 57.269531 74.285156 57.253906 74.375 57.253906 C 74.417969 57.253906 74.464844 57.257812 74.515625 57.261719 C 74.5625 57.269531 74.636719 57.285156 74.730469 57.308594 L 74.730469 56.386719 L 75.023438 56.355469 L 75.023438 58.800781 C 75.023438 58.835938 75.027344 58.871094 75.027344 58.910156 C 75.027344 58.949219 75.03125 58.984375 75.035156 59.023438 C 75.039062 59.058594 75.042969 59.097656 75.046875 59.136719 Z M 76.457031 59.136719 L 76.457031 56.632812 L 77.03125 56.632812 C 77.351562 56.632812 77.585938 56.6875 77.738281 56.800781 C 77.890625 56.914062 77.96875 57.105469 77.96875 57.371094 C 77.96875 57.515625 77.941406 57.640625 77.882812 57.738281 C 77.828125 57.835938 77.757812 57.914062 77.671875 57.972656 C 77.589844 58.035156 77.496094 58.078125 77.398438 58.101562 C 77.300781 58.128906 77.210938 58.140625 77.128906 58.140625 L 76.765625 58.140625 L 76.765625 59.136719 Z M 76.765625 56.90625 L 76.765625 57.867188 L 77.101562 57.867188 C 77.183594 57.867188 77.261719 57.859375 77.328125 57.839844 C 77.394531 57.824219 77.453125 57.800781 77.503906 57.761719 C 77.550781 57.722656 77.589844 57.671875 77.617188 57.605469 C 77.644531 57.542969 77.65625 57.460938 77.65625 57.363281 C 77.65625 57.265625 77.640625 57.1875 77.613281 57.125 C 77.585938 57.066406 77.542969 57.019531 77.488281 56.988281 C 77.433594 56.957031 77.363281 56.933594 77.28125 56.925781 C 77.199219 56.914062 77.101562 56.90625 76.992188 56.90625 Z M 78.382812 59.136719 L 78.382812 57.585938 C 78.382812 57.53125 78.375 57.441406 78.363281 57.324219 L 78.636719 57.285156 L 78.664062 57.554688 L 78.667969 57.554688 C 78.710938 57.496094 78.753906 57.449219 78.796875 57.40625 C 78.839844 57.367188 78.882812 57.328125 78.925781 57.296875 C 78.972656 57.269531 79.015625 57.253906 79.058594 57.253906 C 79.113281 57.25 79.191406 57.257812 79.292969 57.269531 L 79.226562 57.554688 C 79.144531 57.539062 79.089844 57.53125 79.058594 57.535156 C 79.015625 57.535156 78.972656 57.554688 78.925781 57.59375 C 78.878906 57.632812 78.839844 57.675781 78.804688 57.71875 C 78.761719 57.773438 78.71875 57.835938 78.675781 57.902344 L 78.675781 59.136719 Z M 79.769531 58.222656 C 79.769531 58.460938 79.824219 58.636719 79.929688 58.75 C 80.035156 58.867188 80.179688 58.925781 80.359375 58.925781 C 80.539062 58.925781 80.679688 58.867188 80.777344 58.753906 C 80.878906 58.640625 80.929688 58.464844 80.929688 58.238281 C 80.929688 57.992188 80.875 57.808594 80.769531 57.691406 C 80.664062 57.570312 80.519531 57.511719 80.335938 57.511719 C 80.152344 57.511719 80.011719 57.570312 79.914062 57.6875 C 79.816406 57.804688 79.769531 57.984375 79.769531 58.222656 Z M 79.457031 58.21875 C 79.457031 58.03125 79.488281 57.878906 79.546875 57.753906 C 79.605469 57.628906 79.679688 57.53125 79.769531 57.457031 C 79.859375 57.382812 79.957031 57.328125 80.0625 57.296875 C 80.164062 57.269531 80.261719 57.253906 80.355469 57.253906 C 80.445312 57.253906 80.539062 57.265625 80.644531 57.292969 C 80.75 57.324219 80.84375 57.375 80.933594 57.445312 C 81.019531 57.519531 81.09375 57.613281 81.152344 57.734375 C 81.210938 57.855469 81.242188 58.011719 81.242188 58.195312 C 81.242188 58.390625 81.210938 58.550781 81.152344 58.675781 C 81.089844 58.804688 81.015625 58.90625 80.925781 58.980469 C 80.835938 59.054688 80.738281 59.105469 80.632812 59.136719 C 80.527344 59.167969 80.429688 59.183594 80.339844 59.183594 C 80.246094 59.183594 80.148438 59.167969 80.042969 59.140625 C 79.941406 59.109375 79.847656 59.058594 79.761719 58.988281 C 79.671875 58.914062 79.601562 58.816406 79.542969 58.691406 C 79.484375 58.566406 79.457031 58.410156 79.457031 58.21875 Z M 81.671875 59.136719 L 81.671875 57.625 C 81.671875 57.539062 81.664062 57.441406 81.648438 57.324219 L 81.921875 57.285156 L 81.964844 57.515625 C 82.03125 57.46875 82.09375 57.425781 82.160156 57.390625 C 82.222656 57.351562 82.289062 57.320312 82.363281 57.292969 C 82.4375 57.265625 82.511719 57.253906 82.585938 57.253906 C 82.710938 57.253906 82.808594 57.273438 82.878906 57.316406 C 82.949219 57.359375 83 57.433594 83.035156 57.535156 C 83.136719 57.464844 83.242188 57.398438 83.347656 57.339844 C 83.457031 57.28125 83.570312 57.253906 83.6875 57.253906 C 83.777344 57.253906 83.855469 57.265625 83.921875 57.289062 C 83.984375 57.3125 84.035156 57.351562 84.074219 57.402344 C 84.113281 57.457031 84.140625 57.527344 84.160156 57.617188 C 84.175781 57.703125 84.183594 57.816406 84.183594 57.945312 L 84.183594 59.136719 L 83.890625 59.136719 L 83.890625 57.980469 C 83.890625 57.90625 83.890625 57.839844 83.886719 57.78125 C 83.882812 57.726562 83.875 57.675781 83.859375 57.636719 C 83.847656 57.597656 83.824219 57.566406 83.789062 57.542969 C 83.757812 57.519531 83.710938 57.511719 83.648438 57.511719 C 83.59375 57.511719 83.539062 57.519531 83.488281 57.535156 C 83.4375 57.550781 83.386719 57.574219 83.332031 57.601562 C 83.277344 57.632812 83.195312 57.691406 83.082031 57.78125 L 83.082031 59.136719 L 82.789062 59.136719 L 82.789062 57.980469 C 82.789062 57.90625 82.789062 57.839844 82.785156 57.78125 C 82.785156 57.726562 82.773438 57.675781 82.761719 57.636719 C 82.746094 57.597656 82.722656 57.566406 82.6875 57.542969 C 82.65625 57.519531 82.609375 57.511719 82.546875 57.511719 C 82.484375 57.511719 82.417969 57.523438 82.347656 57.550781 C 82.28125 57.578125 82.214844 57.609375 82.15625 57.644531 C 82.09375 57.683594 82.03125 57.726562 81.964844 57.773438 L 81.964844 59.136719 Z M 84.707031 59.972656 L 84.707031 57.714844 C 84.707031 57.628906 84.699219 57.496094 84.6875 57.324219 L 84.957031 57.285156 L 84.992188 57.484375 C 85.039062 57.441406 85.089844 57.40625 85.144531 57.371094 C 85.195312 57.339844 85.253906 57.3125 85.316406 57.289062 C 85.378906 57.265625 85.445312 57.253906 85.515625 57.253906 C 85.617188 57.253906 85.710938 57.269531 85.800781 57.304688 C 85.890625 57.339844 85.96875 57.394531 86.035156 57.46875 C 86.101562 57.546875 86.15625 57.644531 86.195312 57.765625 C 86.234375 57.886719 86.253906 58.035156 86.253906 58.210938 C 86.253906 58.390625 86.226562 58.539062 86.175781 58.664062 C 86.121094 58.789062 86.054688 58.886719 85.96875 58.964844 C 85.886719 59.042969 85.789062 59.097656 85.683594 59.132812 C 85.578125 59.167969 85.46875 59.183594 85.359375 59.183594 C 85.242188 59.179688 85.121094 59.167969 85 59.140625 L 85 59.9375 Z M 85.359375 58.925781 C 85.460938 58.925781 85.550781 58.90625 85.621094 58.871094 C 85.695312 58.835938 85.757812 58.785156 85.804688 58.71875 C 85.851562 58.652344 85.886719 58.578125 85.910156 58.496094 C 85.929688 58.410156 85.941406 58.320312 85.941406 58.226562 C 85.941406 58.140625 85.933594 58.054688 85.917969 57.96875 C 85.902344 57.882812 85.875 57.804688 85.839844 57.738281 C 85.804688 57.671875 85.757812 57.617188 85.699219 57.574219 C 85.640625 57.53125 85.570312 57.511719 85.484375 57.511719 C 85.417969 57.511719 85.359375 57.519531 85.304688 57.542969 C 85.246094 57.566406 85.195312 57.597656 85.144531 57.628906 C 85.09375 57.664062 85.046875 57.699219 85 57.742188 L 85 58.867188 C 85.027344 58.878906 85.054688 58.886719 85.089844 58.894531 C 85.121094 58.902344 85.160156 58.910156 85.207031 58.917969 C 85.25 58.921875 85.300781 58.925781 85.359375 58.925781 Z M 86.804688 56.777344 L 87.097656 56.738281 L 87.097656 57.289062 L 87.628906 57.289062 L 87.628906 57.527344 L 87.097656 57.527344 L 87.097656 58.507812 C 87.097656 58.589844 87.097656 58.65625 87.101562 58.710938 C 87.105469 58.765625 87.113281 58.808594 87.125 58.839844 C 87.140625 58.871094 87.15625 58.894531 87.179688 58.90625 C 87.199219 58.917969 87.226562 58.925781 87.261719 58.925781 C 87.355469 58.925781 87.464844 58.890625 87.585938 58.824219 L 87.671875 59.046875 C 87.59375 59.101562 87.519531 59.136719 87.449219 59.15625 C 87.378906 59.175781 87.308594 59.183594 87.242188 59.183594 C 87.078125 59.183594 86.964844 59.136719 86.902344 59.046875 C 86.835938 58.953125 86.804688 58.800781 86.804688 58.589844 L 86.804688 57.527344 L 86.464844 57.527344 L 86.464844 57.289062 L 86.804688 57.289062 Z M 88.003906 59.136719 L 88.003906 56.386719 L 88.296875 56.355469 L 88.296875 59.136719 Z M 89.324219 59.089844 L 88.585938 57.289062 L 88.898438 57.289062 L 89.246094 58.121094 C 89.277344 58.203125 89.308594 58.285156 89.335938 58.363281 C 89.367188 58.445312 89.390625 58.519531 89.414062 58.582031 C 89.441406 58.65625 89.464844 58.730469 89.484375 58.800781 L 89.488281 58.800781 C 89.507812 58.730469 89.53125 58.65625 89.558594 58.582031 C 89.582031 58.519531 89.609375 58.445312 89.636719 58.363281 C 89.667969 58.285156 89.695312 58.203125 89.730469 58.121094 L 90.046875 57.289062 L 90.355469 57.289062 L 89.484375 59.492188 C 89.449219 59.582031 89.402344 59.660156 89.347656 59.726562 C 89.292969 59.792969 89.242188 59.847656 89.1875 59.890625 C 89.128906 59.941406 89.066406 59.988281 89 60.023438 L 88.855469 59.769531 C 88.90625 59.746094 88.953125 59.714844 89 59.679688 C 89.039062 59.648438 89.078125 59.609375 89.117188 59.558594 C 89.15625 59.511719 89.1875 59.453125 89.210938 59.390625 Z M 90.472656 58.917969 C 90.472656 58.859375 90.496094 58.808594 90.535156 58.765625 C 90.578125 58.722656 90.628906 58.703125 90.691406 58.703125 C 90.753906 58.703125 90.808594 58.722656 90.851562 58.765625 C 90.894531 58.808594 90.917969 58.859375 90.917969 58.917969 C 90.917969 58.980469 90.894531 59.03125 90.851562 59.074219 C 90.808594 59.113281 90.753906 59.136719 90.691406 59.136719 C 90.628906 59.136719 90.578125 59.113281 90.535156 59.074219 C 90.496094 59.03125 90.472656 58.980469 90.472656 58.917969 Z M 90.472656 58.917969 "/>
</g>
<path style=" stroke:none;fill-rule:nonzero;fill:rgb(67.058824%,66.27451%,26.666667%);fill-opacity:1;" d="M 2.320312 53.65625 C 3.234375 55.714844 4.878906 57.234375 6.820312 58.035156 L 9.859375 50.417969 Z M 3.636719 54.4375 C 3.453125 54.011719 3.648438 53.519531 4.074219 53.339844 C 4.5 53.15625 4.992188 53.351562 5.171875 53.777344 C 5.355469 54.203125 5.160156 54.695312 4.734375 54.875 C 4.53125 54.964844 4.300781 54.96875 4.09375 54.886719 C 3.886719 54.800781 3.722656 54.640625 3.636719 54.4375 M 6.679688 56.609375 C 6.476562 56.695312 6.246094 56.699219 6.039062 56.617188 C 5.835938 56.535156 5.667969 56.375 5.582031 56.171875 C 5.398438 55.746094 5.597656 55.253906 6.019531 55.070312 C 6.445312 54.890625 6.9375 55.085938 7.121094 55.507812 C 7.300781 55.933594 7.105469 56.425781 6.679688 56.609375 M 7.371094 53.980469 C 6.949219 54.164062 6.457031 53.964844 6.273438 53.542969 C 6.089844 53.117188 6.289062 52.625 6.710938 52.441406 C 7.136719 52.261719 7.628906 52.457031 7.8125 52.882812 C 7.992188 53.304688 7.796875 53.796875 7.371094 53.980469 "/>
<g clip-path="url(#clip4)" clip-rule="nonzero">
<path style=" stroke:none;fill-rule:nonzero;fill:rgb(67.058824%,66.27451%,26.666667%);fill-opacity:1;" d="M 1.789062 47.046875 L 0.695312 46.609375 C -0.207031 48.941406 -0.242188 51.609375 0.792969 54.09375 L 1.871094 53.628906 C 0.960938 51.445312 0.996094 49.097656 1.789062 47.046875 "/>
</g>
<g clip-path="url(#clip5)" clip-rule="nonzero">
<path style=" stroke:none;fill-rule:nonzero;fill:rgb(67.058824%,66.27451%,26.666667%);fill-opacity:1;" d="M 6.453125 42.136719 L 5.992188 41.0625 C 3.53125 42.148438 1.71875 44.109375 0.769531 46.421875 L 1.863281 46.859375 C 2.699219 44.824219 4.292969 43.097656 6.453125 42.136719 "/>
</g>
<path style=" stroke:none;fill-rule:nonzero;fill:rgb(67.058824%,66.27451%,26.666667%);fill-opacity:1;" d="M 13.222656 41.976562 L 13.660156 40.882812 C 11.328125 39.980469 8.660156 39.945312 6.175781 40.984375 L 6.640625 42.058594 C 8.820312 41.148438 11.167969 41.183594 13.222656 41.976562 "/>
<path style=" stroke:none;fill-rule:nonzero;fill:rgb(67.058824%,66.27451%,26.666667%);fill-opacity:1;" d="M 7.003906 58.109375 C 8.964844 58.863281 11.203125 58.894531 13.285156 58.03125 L 10.042969 50.492188 Z M 9.285156 57.644531 C 9.046875 57.832031 8.726562 57.875 8.449219 57.757812 C 8.171875 57.644531 7.976562 57.390625 7.9375 57.089844 C 7.902344 56.792969 8.027344 56.496094 8.269531 56.316406 C 8.636719 56.042969 9.15625 56.113281 9.433594 56.476562 C 9.710938 56.84375 9.644531 57.363281 9.285156 57.644531 M 9.316406 55.179688 C 9.035156 54.8125 9.105469 54.285156 9.472656 54.003906 C 9.839844 53.726562 10.367188 53.796875 10.644531 54.164062 C 10.925781 54.53125 10.855469 55.054688 10.488281 55.335938 C 10.121094 55.617188 9.597656 55.546875 9.316406 55.179688 M 12 57.675781 C 11.632812 57.957031 11.109375 57.886719 10.828125 57.519531 C 10.546875 57.152344 10.617188 56.625 10.984375 56.34375 C 11.351562 56.066406 11.878906 56.136719 12.160156 56.503906 C 12.292969 56.679688 12.351562 56.902344 12.324219 57.121094 C 12.292969 57.339844 12.179688 57.539062 12 57.675781 "/>
<path style=" stroke:none;fill-rule:nonzero;fill:rgb(67.058824%,66.27451%,26.666667%);fill-opacity:1;" d="M 11.53125 48.730469 L 19.070312 45.492188 C 18.15625 43.433594 16.511719 41.914062 14.570312 41.113281 Z M 14.640625 46.648438 C 14.207031 46.8125 13.722656 46.59375 13.558594 46.164062 C 13.398438 45.730469 13.613281 45.25 14.046875 45.085938 C 14.480469 44.921875 14.960938 45.140625 15.125 45.570312 C 15.289062 46.003906 15.070312 46.488281 14.640625 46.648438 M 17.800781 44.792969 C 17.964844 45.226562 17.746094 45.707031 17.3125 45.871094 C 16.882812 46.035156 16.398438 45.816406 16.234375 45.386719 C 16.070312 44.953125 16.289062 44.46875 16.722656 44.304688 C 17.15625 44.144531 17.636719 44.363281 17.800781 44.792969 M 15.445312 44.054688 C 15.015625 44.21875 14.53125 44 14.367188 43.570312 C 14.207031 43.136719 14.421875 42.652344 14.855469 42.488281 C 15.289062 42.328125 15.769531 42.542969 15.933594 42.976562 C 16.097656 43.410156 15.878906 43.890625 15.445312 44.054688 "/>
<g clip-path="url(#clip6)" clip-rule="nonzero">
<path style=" stroke:none;fill-rule:nonzero;fill:rgb(67.058824%,66.27451%,26.666667%);fill-opacity:1;" d="M 19.441406 45.335938 L 20.515625 44.871094 C 19.429688 42.410156 17.46875 40.597656 15.15625 39.648438 L 14.71875 40.742188 C 16.753906 41.582031 18.480469 43.171875 19.441406 45.335938 "/>
</g>
<path style=" stroke:none;fill-rule:nonzero;fill:rgb(67.058824%,66.27451%,26.666667%);fill-opacity:1;" d="M 17.921875 53.265625 C 18.675781 51.304688 18.707031 49.066406 17.839844 46.984375 L 10.304688 50.226562 Z M 15.855469 48.472656 C 16.058594 48.054688 16.558594 47.886719 16.976562 48.089844 C 17.390625 48.292969 17.558594 48.796875 17.355469 49.210938 C 17.152344 49.625 16.648438 49.796875 16.234375 49.589844 C 15.820312 49.386719 15.648438 48.886719 15.855469 48.472656 M 16.921875 50.695312 C 17.195312 50.824219 17.375 51.09375 17.394531 51.390625 C 17.414062 51.691406 17.273438 51.980469 17.023438 52.148438 C 16.773438 52.3125 16.449219 52.332031 16.183594 52.195312 C 15.773438 51.988281 15.605469 51.492188 15.808594 51.078125 C 16.011719 50.667969 16.507812 50.496094 16.921875 50.695312 M 14.527344 49.273438 C 14.800781 49.402344 14.984375 49.667969 15.003906 49.96875 C 15.027344 50.269531 14.882812 50.558594 14.632812 50.726562 C 14.378906 50.894531 14.058594 50.910156 13.789062 50.773438 C 13.375 50.570312 13.203125 50.066406 13.40625 49.652344 C 13.613281 49.238281 14.113281 49.066406 14.527344 49.273438 "/>
<path style=" stroke:none;fill-rule:nonzero;fill:rgb(67.058824%,66.27451%,26.666667%);fill-opacity:1;" d="M 13.46875 57.949219 C 15.527344 57.035156 17.046875 55.390625 17.847656 53.449219 L 10.226562 50.410156 Z M 15.4375 53.105469 C 15.871094 52.941406 16.355469 53.15625 16.519531 53.589844 C 16.683594 54.019531 16.46875 54.503906 16.035156 54.667969 C 15.605469 54.835938 15.121094 54.617188 14.957031 54.1875 C 14.789062 53.753906 15.007812 53.269531 15.4375 53.105469 M 12.839844 52.304688 C 13.050781 52.226562 13.28125 52.234375 13.480469 52.324219 C 13.683594 52.414062 13.84375 52.582031 13.921875 52.789062 C 14.085938 53.21875 13.871094 53.703125 13.4375 53.867188 C 13.007812 54.03125 12.523438 53.816406 12.359375 53.386719 C 12.195312 52.953125 12.410156 52.46875 12.839844 52.304688 M 13.628906 54.976562 C 14.058594 54.820312 14.535156 55.039062 14.699219 55.464844 C 14.859375 55.894531 14.648438 56.371094 14.222656 56.542969 C 13.792969 56.699219 13.316406 56.480469 13.152344 56.054688 C 12.992188 55.625 13.203125 55.148438 13.628906 54.976562 "/>
<g clip-path="url(#clip7)" clip-rule="nonzero">
<path style=" stroke:none;fill-rule:nonzero;fill:rgb(67.058824%,66.27451%,26.666667%);fill-opacity:1;" d="M 6.855469 58.480469 L 6.421875 59.574219 C 8.753906 60.476562 11.421875 60.511719 13.90625 59.472656 L 13.441406 58.398438 C 11.257812 59.308594 8.910156 59.273438 6.855469 58.480469 "/>
</g>
<path style=" stroke:none;fill-rule:nonzero;fill:rgb(67.058824%,66.27451%,26.666667%);fill-opacity:1;" d="M 6.613281 42.507812 C 4.550781 43.421875 3.035156 45.066406 2.234375 47.007812 L 9.851562 50.046875 Z M 4.8125 47.308594 C 4.535156 47.417969 4.21875 47.371094 3.984375 47.183594 C 3.75 46.996094 3.632812 46.699219 3.679688 46.402344 C 3.726562 46.105469 3.925781 45.859375 4.203125 45.75 C 4.636719 45.582031 5.117188 45.796875 5.285156 46.226562 C 5.453125 46.65625 5.242188 47.140625 4.8125 47.308594 M 7.414062 48.089844 C 7.136719 48.203125 6.816406 48.15625 6.582031 47.96875 C 6.347656 47.78125 6.230469 47.480469 6.277344 47.183594 C 6.324219 46.886719 6.527344 46.636719 6.808594 46.53125 C 7.238281 46.371094 7.714844 46.582031 7.882812 47.011719 C 8.050781 47.4375 7.839844 47.917969 7.414062 48.089844 M 6.609375 45.421875 C 6.332031 45.535156 6.011719 45.488281 5.777344 45.300781 C 5.539062 45.113281 5.425781 44.816406 5.472656 44.515625 C 5.515625 44.21875 5.71875 43.96875 6 43.863281 C 6.429688 43.703125 6.910156 43.914062 7.078125 44.34375 C 7.242188 44.769531 7.035156 45.25 6.609375 45.421875 "/>
<path style=" stroke:none;fill-rule:nonzero;fill:rgb(67.058824%,66.27451%,26.666667%);fill-opacity:1;" d="M 13.625 58.320312 L 14.089844 59.394531 C 16.550781 58.308594 18.359375 56.347656 19.3125 54.035156 L 18.21875 53.597656 C 17.378906 55.636719 15.789062 57.363281 13.625 58.320312 "/>
<g clip-path="url(#clip8)" clip-rule="nonzero">
<path style=" stroke:none;fill-rule:nonzero;fill:rgb(67.058824%,66.27451%,26.666667%);fill-opacity:1;" d="M 18.210938 46.828125 C 19.117188 49.011719 19.085938 51.359375 18.292969 53.414062 L 19.386719 53.847656 C 20.289062 51.515625 20.324219 48.847656 19.285156 46.363281 Z M 18.210938 46.828125 "/>
</g>
<path style=" stroke:none;fill-rule:nonzero;fill:rgb(67.058824%,66.27451%,26.666667%);fill-opacity:1;" d="M 2.160156 47.195312 C 1.40625 49.152344 1.375 51.390625 2.238281 53.472656 L 9.777344 50.230469 Z M 4.039062 51.984375 C 3.902344 52.253906 3.632812 52.425781 3.328125 52.4375 C 3.027344 52.449219 2.746094 52.300781 2.585938 52.042969 C 2.425781 51.789062 2.417969 51.46875 2.5625 51.203125 C 2.78125 50.800781 3.28125 50.652344 3.6875 50.867188 C 4.089844 51.078125 4.246094 51.578125 4.039062 51.984375 M 4.167969 49.382812 C 4.03125 49.652344 3.761719 49.828125 3.457031 49.839844 C 3.15625 49.851562 2.871094 49.703125 2.710938 49.445312 C 2.550781 49.1875 2.542969 48.863281 2.691406 48.601562 C 2.910156 48.203125 3.410156 48.054688 3.8125 48.269531 C 4.214844 48.480469 4.371094 48.976562 4.167969 49.382812 M 6.519531 50.875 C 6.304688 51.285156 5.796875 51.441406 5.390625 51.222656 C 4.980469 51.007812 4.824219 50.5 5.042969 50.09375 C 5.257812 49.683594 5.765625 49.527344 6.171875 49.746094 C 6.582031 49.960938 6.738281 50.46875 6.519531 50.875 "/>
<path style=" stroke:none;fill-rule:nonzero;fill:rgb(67.058824%,66.27451%,26.666667%);fill-opacity:1;" d="M 13.074219 42.347656 C 11.117188 41.59375 8.878906 41.5625 6.796875 42.429688 L 10.035156 49.964844 Z M 10.519531 43.320312 C 10.640625 43.042969 10.90625 42.855469 11.207031 42.828125 C 11.507812 42.800781 11.796875 42.941406 11.96875 43.1875 C 12.140625 43.4375 12.164062 43.757812 12.03125 44.03125 C 11.910156 44.308594 11.648438 44.5 11.34375 44.527344 C 11.039062 44.554688 10.746094 44.417969 10.574219 44.167969 C 10.402344 43.914062 10.382812 43.589844 10.519531 43.320312 M 10.65625 46.453125 C 10.457031 46.871094 9.960938 47.050781 9.542969 46.851562 C 9.125 46.65625 8.945312 46.160156 9.140625 45.742188 C 9.335938 45.320312 9.835938 45.140625 10.253906 45.339844 C 10.671875 45.535156 10.851562 46.03125 10.65625 46.453125 M 9.027344 42.914062 C 9.445312 43.109375 9.625 43.609375 9.425781 44.027344 C 9.230469 44.445312 8.730469 44.625 8.3125 44.429688 C 7.894531 44.230469 7.714844 43.734375 7.914062 43.316406 C 8.109375 42.898438 8.605469 42.71875 9.027344 42.914062 "/>
<g clip-path="url(#clip9)" clip-rule="nonzero">
<path style=" stroke:none;fill-rule:nonzero;fill:rgb(67.058824%,66.27451%,26.666667%);fill-opacity:1;" d="M 1.949219 53.816406 L 0.875 54.277344 C 1.960938 56.738281 3.921875 58.550781 6.234375 59.5 L 6.671875 58.40625 C 4.632812 57.570312 2.90625 55.976562 1.949219 53.816406 "/>
</g>
</g>
</svg>