<svg class="animated" id="freepik_stories-shops-re-opening-soon" xmlns="http://www.w3.org/2000/svg" viewBox="0 0 500 500" version="1.1" xmlns:xlink="http://www.w3.org/1999/xlink" xmlns:svgjs="http://svgjs.com/svgjs"><style>svg#freepik_stories-shops-re-opening-soon:not(.animated) .animable {opacity: 0;}svg#freepik_stories-shops-re-opening-soon.animated #freepik--background-complete--inject-1 {animation: 1s 1 forwards cubic-bezier(.36,-0.01,.5,1.38) slideRight;animation-delay: 0s;}svg#freepik_stories-shops-re-opening-soon.animated #freepik--Shadow--inject-1 {animation: 1s 1 forwards cubic-bezier(.36,-0.01,.5,1.38) slideUp;animation-delay: 0s;}svg#freepik_stories-shops-re-opening-soon.animated #freepik--Shop--inject-1 {animation: 1s 1 forwards cubic-bezier(.36,-0.01,.5,1.38) fadeIn;animation-delay: 0s;}svg#freepik_stories-shops-re-opening-soon.animated #freepik--Character--inject-1 {animation: 1s 1 forwards cubic-bezier(.36,-0.01,.5,1.38) slideLeft;animation-delay: 0s;}svg#freepik_stories-shops-re-opening-soon.animated #freepik--Sign--inject-1 {animation: 1s 1 forwards cubic-bezier(.36,-0.01,.5,1.38) slideDown,1.5s Infinite  linear floating;animation-delay: 0s,1s;}            @keyframes slideRight {                0% {                    opacity: 0;                    transform: translateX(30px);                }                100% {                    opacity: 1;                    transform: translateX(0);                }            }                    @keyframes slideUp {                0% {                    opacity: 0;                    transform: translateY(30px);                }                100% {                    opacity: 1;                    transform: inherit;                }            }                    @keyframes fadeIn {                0% {                    opacity: 0;                }                100% {                    opacity: 1;                }            }                    @keyframes slideLeft {                0% {                    opacity: 0;                    transform: translateX(-30px);                }                100% {                    opacity: 1;                    transform: translateX(0);                }            }                    @keyframes slideDown {                0% {                    opacity: 0;                    transform: translateY(-30px);                }                100% {                    opacity: 1;                    transform: translateY(0);                }            }                    @keyframes floating {                0% {                    opacity: 1;                    transform: translateY(0px);                }                50% {                    transform: translateY(-10px);                }                100% {                    opacity: 1;                    transform: translateY(0px);                }            }        </style><g id="freepik--background-complete--inject-1" class="animable" style="transform-origin: 250px 216.68px;"><rect y="382.4" width="500" height="0.25" style="fill: rgb(235, 235, 235); transform-origin: 250px 382.525px;" id="elge4is6xvpq6" class="animable"></rect><rect x="324.56" y="389.21" width="33.12" height="0.25" style="fill: rgb(235, 235, 235); transform-origin: 341.12px 389.335px;" id="elzw1wv4bb0c" class="animable"></rect><rect x="428.57" y="391.4" width="8.69" height="0.25" style="fill: rgb(235, 235, 235); transform-origin: 432.915px 391.525px;" id="el5fcch1wuyo" class="animable"></rect><rect x="358.69" y="398.49" width="19.19" height="0.25" style="fill: rgb(235, 235, 235); transform-origin: 368.285px 398.615px;" id="elj78m9mvtyyc" class="animable"></rect><rect x="206.81" y="395.11" width="43.19" height="0.25" style="fill: rgb(235, 235, 235); transform-origin: 228.405px 395.235px;" id="el1uslk9cw6dn" class="animable"></rect><rect x="191.57" y="395.11" width="6.33" height="0.25" style="fill: rgb(235, 235, 235); transform-origin: 194.735px 395.235px;" id="el90vzninzem" class="animable"></rect><rect x="77.31" y="390.89" width="93.68" height="0.25" style="fill: rgb(235, 235, 235); transform-origin: 124.15px 391.015px;" id="elgdvcoc504ns" class="animable"></rect><path d="M237,337.8H43.91a5.71,5.71,0,0,1-5.7-5.71V60.66A5.71,5.71,0,0,1,43.91,55H237a5.71,5.71,0,0,1,5.71,5.71V332.09A5.71,5.71,0,0,1,237,337.8ZM43.91,55.2a5.46,5.46,0,0,0-5.45,5.46V332.09a5.46,5.46,0,0,0,5.45,5.46H237a5.47,5.47,0,0,0,5.46-5.46V60.66A5.47,5.47,0,0,0,237,55.2Z" style="fill: rgb(235, 235, 235); transform-origin: 140.46px 196.4px;" id="el0jo4711rpvg9" class="animable"></path><path d="M453.31,337.8H260.21a5.72,5.72,0,0,1-5.71-5.71V60.66A5.72,5.72,0,0,1,260.21,55h193.1A5.71,5.71,0,0,1,459,60.66V332.09A5.71,5.71,0,0,1,453.31,337.8ZM260.21,55.2a5.47,5.47,0,0,0-5.46,5.46V332.09a5.47,5.47,0,0,0,5.46,5.46h193.1a5.47,5.47,0,0,0,5.46-5.46V60.66a5.47,5.47,0,0,0-5.46-5.46Z" style="fill: rgb(235, 235, 235); transform-origin: 356.75px 196.4px;" id="el77ufod1ltbq" class="animable"></path><path d="M240,318.51h0c-.06-1.41-.18-2.84-.37-4.28-2-15.06-10.81-28.48-22.88-37.23a26.4,26.4,0,0,0-.24-3.93c-2-14.59-15.39-26.42-30-26.42a24.78,24.78,0,0,0-8.43,1.44c-10.23-13.64-26.53-22.74-43.72-22.74a44.37,44.37,0,0,0-16.26,3c-5.61-8.11-15-13.61-25-13.61-14.59,0-24.83,11.83-22.86,26.42a28,28,0,0,0,1.28,5.41c-18.74,6-30.51,24.15-27.61,45.65a51.11,51.11,0,0,0,2.45,10.13h0c-14.5,7.86-23,24-20.49,42.62,2,15.19,11,28.71,23.18,37.45H245.85C253.16,373.79,256.79,362,255,349A54.67,54.67,0,0,0,240,318.51Z" style="fill: rgb(240, 240, 240); transform-origin: 140.442px 298.58px;" id="el6kny5wa6lgl" class="animable"></path><path d="M482.11,302.39h0c.52-1.77,1-3.56,1.35-5.37,3.93-18.85-.7-35.65-11.1-46.61a39.85,39.85,0,0,0,1.37-4.92c3.81-18.28-6.88-33.09-23.87-33.09a32,32,0,0,0-10.42,1.81C433.21,197.11,418,185.71,398,185.71a58.29,58.29,0,0,0-20.19,3.75c-3.13-10.16-11.78-17-23.36-17-17,0-33.85,14.81-37.66,33.08a36,36,0,0,0-.76,6.78c-24.31,7.48-45.61,30.24-51.22,57.16a65.09,65.09,0,0,0-1.37,12.69h0c-20.17,9.84-36.81,30.05-41.66,53.38-4,19,.76,35.95,11.35,46.89H462.27a78.29,78.29,0,0,0,24.67-41.89C490,326,487.93,312.74,482.11,302.39Z" style="fill: rgb(240, 240, 240); transform-origin: 354.361px 277.45px;" id="elg466xvj9bok" class="animable"></path><rect x="45.67" y="113.67" width="8.33" height="172.67" style="fill: rgb(224, 224, 224); transform-origin: 49.835px 200.005px;" id="elyz2bqltwbn" class="animable"></rect><rect x="42.67" y="110.33" width="14.33" height="3.33" style="fill: rgb(224, 224, 224); transform-origin: 49.835px 111.995px;" id="elitivywiekyh" class="animable"></rect><polygon points="50.5 54.95 51.5 40.62 49.83 34.62 48.17 40.62 49.17 54.95 50.5 54.95" style="fill: rgb(224, 224, 224); transform-origin: 49.835px 44.785px;" id="elzt5gaiqpg8" class="animable"></polygon><polygon points="57 110.33 42.67 110.33 32.67 69 67 69 57 110.33" style="fill: rgb(245, 245, 245); transform-origin: 49.835px 89.665px;" id="el14avt3ll3ap" class="animable"></polygon><polygon points="53.38 110.33 46.28 110.33 41.33 69 58.33 69 53.38 110.33" style="fill: rgb(250, 250, 250); transform-origin: 49.83px 89.665px;" id="elv0ufcqlbpup" class="animable"></polygon><polygon points="61.67 374.67 38 374.67 42.79 286.33 56.88 286.33 61.67 374.67" style="fill: rgb(224, 224, 224); transform-origin: 49.835px 330.5px;" id="elmuk7978e9ri" class="animable"></polygon><polyline points="73.44 382.4 73.44 374.67 26.22 374.67 26.22 382.4" style="fill: rgb(224, 224, 224); transform-origin: 49.83px 378.535px;" id="elp8sz6pm1sqo" class="animable"></polyline><path d="M49.83,49.94A19.06,19.06,0,0,0,30.78,69H68.89A19.06,19.06,0,0,0,49.83,49.94Z" style="fill: rgb(224, 224, 224); transform-origin: 49.835px 59.47px;" id="elva5lams47qc" class="animable"></path><path d="M53.06,45.33a3.23,3.23,0,1,1-3.23-3.22A3.23,3.23,0,0,1,53.06,45.33Z" style="fill: rgb(224, 224, 224); transform-origin: 49.83px 45.34px;" id="elw6p0lr8utt" class="animable"></path></g><g id="freepik--Shadow--inject-1" class="animable" style="transform-origin: 250px 416.24px;"><ellipse id="freepik--path--inject-1" cx="250" cy="416.24" rx="193.89" ry="11.32" style="fill: rgb(245, 245, 245); transform-origin: 250px 416.24px;" class="animable"></ellipse></g><g id="freepik--Shop--inject-1" class="animable" style="transform-origin: 250.003px 236.99px;"><rect x="97.89" y="107.08" width="304.22" height="306.24" style="fill: rgb(64, 123, 255); transform-origin: 250px 260.2px;" id="eltlcxnbnenp9" class="animable"></rect><rect x="174.78" y="138.08" width="150.44" height="34.33" rx="3.24" style="fill: rgb(255, 255, 255); transform-origin: 250px 155.245px;" id="el9gfib4un1x4" class="animable"></rect><rect x="180.66" y="142.53" width="138.67" height="25.44" rx="1.61" style="fill: rgb(64, 123, 255); transform-origin: 249.995px 155.25px;" id="elns4whdedugl" class="animable"></rect><path d="M187.24,160.14l8-.5a6.09,6.09,0,0,0,1,3,4.46,4.46,0,0,0,3.71,1.65,4.14,4.14,0,0,0,2.78-.84,2.54,2.54,0,0,0,1-2,2.49,2.49,0,0,0-.92-1.89c-.62-.56-2.06-1.09-4.31-1.58-3.69-.83-6.31-1.93-7.89-3.3a6.67,6.67,0,0,1-2.37-5.26,7.16,7.16,0,0,1,1.21-4,8.12,8.12,0,0,1,3.66-2.93,17.11,17.11,0,0,1,6.69-1.07c3.47,0,6.13.65,8,1.94a8.42,8.42,0,0,1,3.26,6.17l-7.93.47a3.7,3.7,0,0,0-4.12-3.51,3.38,3.38,0,0,0-2.2.62,1.91,1.91,0,0,0-.75,1.51,1.5,1.5,0,0,0,.62,1.17,6.78,6.78,0,0,0,2.82,1,35.25,35.25,0,0,1,7.89,2.4,8.26,8.26,0,0,1,3.47,3,7.71,7.71,0,0,1,1.09,4,8.66,8.66,0,0,1-1.45,4.82,9,9,0,0,1-4.05,3.35,16.32,16.32,0,0,1-6.54,1.14q-6.94,0-9.62-2.67A10.5,10.5,0,0,1,187.24,160.14Z" style="fill: rgb(255, 255, 255); transform-origin: 199.595px 155.457px;" id="el9p43n9n3l" class="animable"></path><path d="M219.6,141.94H228v9.52h9.18v-9.52h8.45v27.2h-8.45v-11H228v11H219.6Z" style="fill: rgb(255, 255, 255); transform-origin: 232.615px 155.54px;" id="eltnzsytmnh6b" class="animable"></path><path d="M253.58,155.56q0-6.66,3.71-10.37t10.34-3.72q6.8,0,10.46,3.65t3.68,10.22a16.78,16.78,0,0,1-1.61,7.82,11.48,11.48,0,0,1-4.64,4.75A15.32,15.32,0,0,1,268,169.6a17.35,17.35,0,0,1-7.61-1.46,11.52,11.52,0,0,1-4.89-4.64A15.4,15.4,0,0,1,253.58,155.56Zm8.41,0q0,4.11,1.53,5.91a5.8,5.8,0,0,0,8.36,0q1.49-1.76,1.48-6.33c0-2.56-.51-4.43-1.55-5.61a5.29,5.29,0,0,0-4.2-1.77,5.11,5.11,0,0,0-4.08,1.8C262.5,150.84,262,152.82,262,155.6Z" style="fill: rgb(255, 255, 255); transform-origin: 267.677px 155.541px;" id="el0ef9773hgiru" class="animable"></path><path d="M289.68,141.94h14q4.56,0,6.84,2.17a8.17,8.17,0,0,1,2.27,6.18,8.41,8.41,0,0,1-2.48,6.44c-1.65,1.54-4.17,2.32-7.56,2.32h-4.6v10.09h-8.44Zm8.44,11.6h2.06a5.29,5.29,0,0,0,3.41-.85,2.7,2.7,0,0,0,1-2.16,3,3,0,0,0-.86-2.17c-.56-.6-1.63-.89-3.21-.89h-2.39Z" style="fill: rgb(255, 255, 255); transform-origin: 301.243px 155.54px;" id="el752rjxnzy7a" class="animable"></path><g id="el7pw4epf6tgi"><path d="M121.1,182.85H378.9a5.56,5.56,0,0,1,5.56,5.56v224.9a0,0,0,0,1,0,0H115.54a0,0,0,0,1,0,0V188.42A5.56,5.56,0,0,1,121.1,182.85Z" style="fill: rgb(255, 255, 255); opacity: 0.5; transform-origin: 250px 298.08px;" class="animable"></path></g><g id="elpifp1j1euia"><polygon points="412 208.95 412 226.49 376.57 230.7 343.68 234.62 317.38 237.74 293.64 240.56 291.1 233.85 288.38 226.68 288.03 237.46 287.91 241.24 284.48 241.65 258.18 244.78 225.29 248.69 198.98 251.81 166.09 255.72 139.78 258.85 106.89 262.76 88 265 88 247.47 123.43 243.26 156.32 239.35 182.61 236.22 205.69 233.48 215.52 232.32 241.82 229.19 241.82 229.18 274.71 225.28 301.02 222.14 333.91 218.23 360.22 215.11 393.11 211.2 412 208.95" style="fill: rgb(64, 123, 255); opacity: 0.4; transform-origin: 250px 236.975px;" class="animable"></polygon></g><g id="elaz4aimqrs97"><polygon points="412 372.64 88 297.46 88 279.93 412 355.1 412 372.64" style="fill: rgb(64, 123, 255); opacity: 0.4; transform-origin: 250px 326.285px;" class="animable"></polygon></g><g id="el6bhe34leo2"><path d="M82.56,107.08H93.4a4.49,4.49,0,0,1,4.49,4.49V413.32a0,0,0,0,1,0,0H82.56a0,0,0,0,1,0,0V107.08A0,0,0,0,1,82.56,107.08Z" style="fill: rgb(38, 50, 56); transform-origin: 90.225px 260.2px; transform: rotate(180deg);" class="animable"></path></g><g id="elm3avprrl68c"><path d="M406.6,107.08h10.84a0,0,0,0,1,0,0V413.32a0,0,0,0,1,0,0H402.11a0,0,0,0,1,0,0V111.58A4.49,4.49,0,0,1,406.6,107.08Z" style="fill: rgb(38, 50, 56); transform-origin: 409.775px 260.2px; transform: rotate(180deg);" class="animable"></path></g><g id="eldy4tciv7u5k"><polygon points="319.81 182.85 285.35 182.85 225.48 413.32 259.93 413.32 319.81 182.85" style="fill: rgb(255, 255, 255); opacity: 0.3; transform-origin: 272.645px 298.085px;" class="animable"></polygon></g><g id="elq4exo3228a"><polygon points="345.19 182.85 330.5 182.85 270.62 413.32 285.32 413.32 345.19 182.85" style="fill: rgb(255, 255, 255); opacity: 0.3; transform-origin: 307.905px 298.085px;" class="animable"></polygon></g><g id="eluxhk3u9xcxj"><polygon points="224.03 182.85 209.33 182.85 149.45 413.32 164.15 413.32 224.03 182.85" style="fill: rgb(255, 255, 255); opacity: 0.3; transform-origin: 186.74px 298.085px;" class="animable"></polygon></g><rect x="244.67" y="179.35" width="10.67" height="233.97" style="fill: rgb(64, 123, 255); transform-origin: 250.005px 296.335px;" id="el1recranjbyi" class="animable"></rect><path d="M437.78,116.21l-42-55.55H104.23l-42,55.55c-4.8,7.16-2.66,13.24,5,13.24s17.37-6.08,21.49-13.24h.36c-4.11,7.16-1.39,13.24,6.27,13.24s16.79-6.08,20.22-13.24h.36c-3.42,7.16-.12,13.24,7.54,13.24s16.2-6.08,19-13.24h.36c-2.74,7.16,1.15,13.24,8.81,13.24s15.62-6.08,17.69-13.24h.35c-2.05,7.16,2.42,13.24,10.08,13.24s15-6.08,16.42-13.24h.36c-1.37,7.16,3.68,13.24,11.34,13.24s14.46-6.08,15.15-13.24h.36c-.68,7.16,4.95,13.24,12.61,13.24s13.88-6.08,13.88-13.24h.36c0,7.16,6.22,13.24,13.88,13.24s13.29-6.08,12.61-13.24H277c.69,7.16,7.49,13.24,15.15,13.24s12.71-6.08,11.34-13.24h.36c1.38,7.16,8.76,13.24,16.42,13.24s12.13-6.08,10.08-13.24h.35c2.07,7.16,10,13.24,17.69,13.24s11.55-6.08,8.81-13.24h.36c2.75,7.16,11.29,13.24,19,13.24s11-6.08,7.54-13.24h.36c3.43,7.16,12.56,13.24,20.22,13.24s10.38-6.08,6.27-13.24h.36c4.12,7.16,13.83,13.24,21.49,13.24S442.58,123.37,437.78,116.21Z" style="fill: rgb(64, 123, 255); transform-origin: 250.008px 95.055px;" id="elvb43qpww2u" class="animable"></path><g id="elqgoi1nx9l9l"><path d="M437.78,116.21l-42-55.55H104.23l-42,55.55c-4.8,7.16-2.66,13.24,5,13.24s17.37-6.08,21.49-13.24h.36c-4.11,7.16-1.39,13.24,6.27,13.24s16.79-6.08,20.22-13.24h.36c-3.42,7.16-.12,13.24,7.54,13.24s16.2-6.08,19-13.24h.36c-2.74,7.16,1.15,13.24,8.81,13.24s15.62-6.08,17.69-13.24h.35c-2.05,7.16,2.42,13.24,10.08,13.24s15-6.08,16.42-13.24h.36c-1.37,7.16,3.68,13.24,11.34,13.24s14.46-6.08,15.15-13.24h.36c-.68,7.16,4.95,13.24,12.61,13.24s13.88-6.08,13.88-13.24h.36c0,7.16,6.22,13.24,13.88,13.24s13.29-6.08,12.61-13.24H277c.69,7.16,7.49,13.24,15.15,13.24s12.71-6.08,11.34-13.24h.36c1.38,7.16,8.76,13.24,16.42,13.24s12.13-6.08,10.08-13.24h.35c2.07,7.16,10,13.24,17.69,13.24s11.55-6.08,8.81-13.24h.36c2.75,7.16,11.29,13.24,19,13.24s11-6.08,7.54-13.24h.36c3.43,7.16,12.56,13.24,20.22,13.24s10.38-6.08,6.27-13.24h.36c4.12,7.16,13.83,13.24,21.49,13.24S442.58,123.37,437.78,116.21Z" style="fill: rgb(255, 255, 255); opacity: 0.8; transform-origin: 250.008px 95.055px;" class="animable"></path></g><g id="elu4d4sdajqdg"><g style="opacity: 0.2; transform-origin: 236.254px 95.055px;" class="animable"><polygon points="104.23 60.66 124.8 60.66 88.71 116.21 62.22 116.21 104.23 60.66" style="fill: rgb(64, 123, 255); transform-origin: 93.51px 88.435px;" id="els65xrdkndmr" class="animable"></polygon><polygon points="145.92 60.66 166.49 60.66 142.41 116.21 115.92 116.21 145.92 60.66" style="fill: rgb(64, 123, 255); transform-origin: 141.205px 88.435px;" id="elid7x1oehavj" class="animable"></polygon><polygon points="187.61 60.66 208.17 60.66 196.12 116.21 169.62 116.21 187.61 60.66" style="fill: rgb(64, 123, 255); transform-origin: 188.895px 88.435px;" id="el3trd8cretd6" class="animable"></polygon><polygon points="229.3 60.66 249.86 60.66 249.82 116.21 223.33 116.21 229.3 60.66" style="fill: rgb(64, 123, 255); transform-origin: 236.595px 88.435px;" id="el5jtw1ohrvt" class="animable"></polygon><polygon points="270.98 60.66 291.55 60.66 303.52 116.21 277.03 116.21 270.98 60.66" style="fill: rgb(64, 123, 255); transform-origin: 287.25px 88.435px;" id="elz4haa40bq0c" class="animable"></polygon><polygon points="312.67 60.66 333.24 60.66 357.23 116.21 330.74 116.21 312.67 60.66" style="fill: rgb(64, 123, 255); transform-origin: 334.95px 88.435px;" id="elh5pmnlv0fzs" class="animable"></polygon><polygon points="354.36 60.66 374.92 60.66 410.93 116.21 384.44 116.21 354.36 60.66" style="fill: rgb(64, 123, 255); transform-origin: 382.645px 88.435px;" id="eln4k6ep80jnr" class="animable"></polygon><path d="M384.44,116.21c3.43,7.16,12.56,13.24,20.22,13.24s10.38-6.08,6.27-13.24" style="fill: rgb(64, 123, 255); transform-origin: 398.64px 122.83px;" id="eljglpcugp92" class="animable"></path><path d="M330.73,116.21c2.07,7.16,10,13.24,17.69,13.24s11.55-6.08,8.81-13.24" style="fill: rgb(64, 123, 255); transform-origin: 344.42px 122.83px;" id="eltpx8qgy14dn" class="animable"></path><path d="M277,116.21c.69,7.16,7.49,13.24,15.15,13.24s12.71-6.08,11.34-13.24" style="fill: rgb(64, 123, 255); transform-origin: 290.357px 122.83px;" id="elfg2g9fdbkx9" class="animable"></path><path d="M223.33,116.21c-.68,7.16,4.95,13.24,12.61,13.24s13.88-6.08,13.88-13.24" style="fill: rgb(64, 123, 255); transform-origin: 236.547px 122.83px;" id="el4kabgspwjfc" class="animable"></path><path d="M169.62,116.21c-2.05,7.16,2.42,13.24,10.08,13.24s15-6.08,16.42-13.24" style="fill: rgb(64, 123, 255); transform-origin: 182.621px 122.83px;" id="eleac51we2fmi" class="animable"></path><path d="M115.92,116.21c-3.42,7.16-.12,13.24,7.54,13.24s16.2-6.08,19-13.24" style="fill: rgb(64, 123, 255); transform-origin: 128.516px 122.83px;" id="elzpelnoa4n3" class="animable"></path><path d="M62.22,116.21c-4.8,7.16-2.66,13.24,5,13.24s17.37-6.08,21.49-13.24" style="fill: rgb(64, 123, 255); transform-origin: 74.189px 122.83px;" id="el9lqfqpdi6rj" class="animable"></path></g></g><polygon points="419.83 366.55 80.17 291.37 80.17 273.83 419.83 349.01 419.83 366.55" style="fill: rgb(64, 123, 255); transform-origin: 250px 320.19px;" id="elf7bm0512c0j" class="animable"></polygon><g id="elvt3bklbb6tg"><polygon points="419.83 366.55 80.17 291.37 80.17 273.83 419.83 349.01 419.83 366.55" style="fill: rgb(255, 255, 255); opacity: 0.4; transform-origin: 250px 320.19px;" class="animable"></polygon></g><g id="elpuox2bkl00s"><g style="opacity: 0.6; transform-origin: 250px 320.185px;" class="animable"><polygon points="134.46 303.38 99.98 295.75 117.31 282.05 151.79 289.68 134.46 303.38" style="fill: rgb(64, 123, 255); transform-origin: 125.885px 292.715px;" id="elvyzokuq76ee" class="animable"></polygon><polygon points="196.51 317.12 162.04 309.49 179.37 295.79 213.85 303.42 196.51 317.12" style="fill: rgb(64, 123, 255); transform-origin: 187.945px 306.455px;" id="el4pv3zis9k1" class="animable"></polygon><polygon points="258.57 330.85 224.09 323.22 241.43 309.52 275.91 317.15 258.57 330.85" style="fill: rgb(64, 123, 255); transform-origin: 250px 320.185px;" id="el47op3j4wevu" class="animable"></polygon><polygon points="320.63 344.59 286.15 336.96 303.48 323.26 337.96 330.89 320.63 344.59" style="fill: rgb(64, 123, 255); transform-origin: 312.055px 333.925px;" id="el4x9g4tuge9" class="animable"></polygon><polygon points="382.69 358.32 348.21 350.69 365.54 336.99 400.02 344.62 382.69 358.32" style="fill: rgb(64, 123, 255); transform-origin: 374.115px 347.655px;" id="elphkdcaa9o5" class="animable"></polygon></g></g><polygon points="419.83 202.86 419.83 220.4 382.69 224.61 348.21 228.52 320.64 231.65 295.75 234.46 293.09 227.75 290.24 220.58 289.87 231.37 289.74 235.15 286.15 235.56 258.57 238.68 224.09 242.59 196.52 245.72 162.03 249.63 134.45 252.75 99.98 256.66 80.17 258.91 80.17 241.38 117.31 237.17 151.79 233.25 179.35 230.13 203.54 227.38 213.85 226.22 241.43 223.09 241.43 223.09 275.9 219.18 303.48 216.05 337.97 212.14 365.55 209.01 400.02 205.1 419.83 202.86" style="fill: rgb(64, 123, 255); transform-origin: 250px 230.885px;" id="ellw3xeu1n2mp" class="animable"></polygon><g id="elvie6jc5jxqn"><polygon points="419.83 202.86 419.83 220.4 382.69 224.61 348.21 228.52 320.64 231.65 295.75 234.46 293.09 227.75 290.24 220.58 289.87 231.37 289.74 235.15 286.15 235.56 258.57 238.68 224.09 242.59 196.52 245.72 162.03 249.63 134.45 252.75 99.98 256.66 80.17 258.91 80.17 241.38 117.31 237.17 151.79 233.25 179.35 230.13 203.54 227.38 213.85 226.22 241.43 223.09 241.43 223.09 275.9 219.18 303.48 216.05 337.97 212.14 365.55 209.01 400.02 205.1 419.83 202.86" style="fill: rgb(255, 255, 255); opacity: 0.4; transform-origin: 250px 230.885px;" class="animable"></polygon></g><g id="el562f95u2ugd"><g style="opacity: 0.6; transform-origin: 250px 230.885px;" class="animable"><polygon points="134.45 252.75 99.97 256.67 117.31 237.16 151.79 233.25 134.45 252.75" style="fill: rgb(64, 123, 255); transform-origin: 125.88px 244.96px;" id="el271nwi7q1wh" class="animable"></polygon><polygon points="196.51 245.72 162.03 249.63 179.37 230.13 213.85 226.22 196.51 245.72" style="fill: rgb(64, 123, 255); transform-origin: 187.94px 237.925px;" id="elwl1omw40bpo" class="animable"></polygon><polygon points="258.57 238.68 224.09 242.59 241.43 223.09 275.91 219.18 258.57 238.68" style="fill: rgb(64, 123, 255); transform-origin: 250px 230.885px;" id="elap1ics1r2gk" class="animable"></polygon><polygon points="286.15 235.56 289.87 231.37 289.74 235.15 286.15 235.56" style="fill: rgb(255, 255, 255); transform-origin: 288.01px 233.465px;" id="elz16xzhwfo4" class="animable"></polygon><polygon points="337.97 212.14 320.64 231.65 295.75 234.46 293.09 227.75 303.48 216.05 337.97 212.14" style="fill: rgb(64, 123, 255); transform-origin: 315.53px 223.3px;" id="el0pguyr3vsm6k" class="animable"></polygon><polygon points="382.69 224.61 348.21 228.52 365.55 209.01 400.03 205.1 382.69 224.61" style="fill: rgb(64, 123, 255); transform-origin: 374.12px 216.81px;" id="elswiv02pcl4" class="animable"></polygon></g></g></g><g id="freepik--Character--inject-1" class="animable" style="transform-origin: 321.516px 310.712px;"><path d="M328.11,208.8c2-4.47,9.93-6.63,17.18-2.05s6.59,14.31,3.42,15.49c9.42,3.18,14.08,23.07,6.17,24.66,2.83,5.77,3.79,28.09-20,23.68s-16.83-24-16.83-24-6.75-15.81,3.84-22.8C317.38,220,320.34,206.59,328.11,208.8Z" style="fill: rgb(38, 50, 56); transform-origin: 337.416px 237.678px;" id="elll091c6w6bh" class="animable"></path><polygon points="336.24 400.77 330.43 403.55 318.02 386.79 325.76 381.54 336.24 400.77" style="fill: rgb(255, 139, 123); transform-origin: 327.13px 392.545px;" id="el3731vhbk6xs" class="animable"></polygon><path d="M329.11,402l5.41-4.82a.49.49,0,0,1,.65,0l4.12,3.46a1,1,0,0,1-.08,1.49c-1.91,1.65-2.91,2.35-5.29,4.47-1.46,1.3-4.37,4.14-6.39,5.94s-3.76,0-3.07-.9c3.11-4.12,3.69-6.49,4.09-8.62A1.74,1.74,0,0,1,329.11,402Z" style="fill: rgb(38, 50, 56); transform-origin: 331.946px 405.183px;" id="eldh3xuzmw8d8" class="animable"></path><path d="M328,404.41a2.59,2.59,0,0,1-1.41.77.76.76,0,0,1-.66-.34.48.48,0,0,1-.06-.46c.33-.83,3.05-1.62,3.36-1.7a.14.14,0,0,1,.16.05.15.15,0,0,1,0,.17A11.48,11.48,0,0,1,328,404.41Zm-1.67-.17a.58.58,0,0,0-.18.23.19.19,0,0,0,0,.19.48.48,0,0,0,.43.22c.51,0,1.34-.68,2.26-1.79A8.7,8.7,0,0,0,326.32,404.24Z" style="fill: rgb(64, 123, 255); transform-origin: 327.627px 403.926px;" id="el6u06acpl29w" class="animable"></path><path d="M329.34,402.93l0,0c-.79.27-2.77.3-3.13-.29-.08-.14-.12-.37.17-.68a1.14,1.14,0,0,1,.79-.38,3.81,3.81,0,0,1,2.24,1.1.16.16,0,0,1,0,.22Zm-2.74-.81-.06.06c-.2.21-.14.3-.12.33.21.35,1.65.43,2.52.24a3.1,3.1,0,0,0-1.82-.84A.83.83,0,0,0,326.6,402.12Z" style="fill: rgb(64, 123, 255); transform-origin: 327.803px 402.348px;" id="el3jt9x5axh0i" class="animable"></path><path d="M318.76,244.41a82.37,82.37,0,0,1-3.38,11.49,52.51,52.51,0,0,1-2.43,5.59,28.78,28.78,0,0,1-3.48,5.44l-.27.33-.46.48a5.38,5.38,0,0,1-1.36.91,4.71,4.71,0,0,1-3.4.19,6.6,6.6,0,0,1-2.11-1.16,12.11,12.11,0,0,1-1.36-1.29,27.94,27.94,0,0,1-3.57-5.26,69.82,69.82,0,0,1-4.62-11,1.58,1.58,0,0,1,2.88-1.25l0,0c.91,1.64,1.85,3.32,2.82,4.94s1.94,3.23,3,4.73a24.17,24.17,0,0,0,3.28,4.05,6.37,6.37,0,0,0,.79.63c.24.15.45.22.44.18a.85.85,0,0,0-.58,0l-.18.09s0,0,0-.06l.17-.23a23.86,23.86,0,0,0,2.49-4.45c.71-1.65,1.37-3.36,2-5.11,1.18-3.48,2.21-7.17,3.08-10.71l0-.08a3.18,3.18,0,0,1,6.19,1.43Z" style="fill: rgb(255, 139, 123); transform-origin: 305.506px 254.805px;" id="elpnkuy3gha6n" class="animable"></path><polygon points="346.24 411.83 340.01 412.05 333.44 389.92 342.03 388.88 346.24 411.83" style="fill: rgb(255, 139, 123); transform-origin: 339.84px 400.465px;" id="el8cce4xzvvhk" class="animable"></polygon><path d="M339.59,410.06l7,0a.45.45,0,0,1,.47.42l.42,5.51a1.09,1.09,0,0,1-1.07,1.11c-2.43,0-3.6-.15-6.67-.13-1.89,0-4.66.23-7.27.25s-2.58-2.56-1.47-2.81c4.94-1.08,5.81-2.53,7.54-3.92A1.78,1.78,0,0,1,339.59,410.06Z" style="fill: rgb(38, 50, 56); transform-origin: 338.883px 413.64px;" id="el47wzkpsrr2v" class="animable"></path><path d="M312.88,241.68C312,245.79,311,255.07,311,276l25,2.21c1.15-9.45,2.1-15.54,8.69-32.48a4.48,4.48,0,0,0-3.17-6c-1.61-.37-3.47-.75-5.36-1a79.89,79.89,0,0,0-11.34-1c-2.77,0-5.77.22-7.88.4A4.46,4.46,0,0,0,312.88,241.68Z" style="fill: rgb(64, 123, 255); transform-origin: 327.999px 257.97px;" id="elak4giv3nlu9" class="animable"></path><g id="el9hqsjz6lgk"><path d="M339.56,244.81c-.11,3,.52,7.57,1.89,9.5.44-1.25.91-2.57,1.43-4Z" style="opacity: 0.2; transform-origin: 341.214px 249.56px;" class="animable"></path></g><path d="M337.07,225.8c-1.31,3.61-3.12,10.28-1,12.95a85.66,85.66,0,0,1-12.69,6.61c-2.6-6.09,1.35-7.61,1.35-7.61,4.23-.62,4.62-3.67,4.38-6.58Z" style="fill: rgb(255, 139, 123); transform-origin: 329.782px 235.58px;" id="el8botayv22rw" class="animable"></path><g id="ellkjcgo9wog"><path d="M334.8,228.54l-5.66,2.62a11.83,11.83,0,0,1,0,2.06c1.18.11,4.24-.79,5.4-2.69A2.85,2.85,0,0,0,334.8,228.54Z" style="opacity: 0.2; transform-origin: 332.007px 230.884px;" class="animable"></path></g><path d="M342.29,220.1c-2.05,5.81-2.79,8.32-6.65,10.5-5.8,3.29-12.49-.5-12.22-6.81.24-5.68,3.56-14.24,10-14.94A8.41,8.41,0,0,1,342.29,220.1Z" style="fill: rgb(255, 139, 123); transform-origin: 333.108px 220.302px;" id="elwh6hvlr9e3m" class="animable"></path><path d="M330.82,208.8c.7,3.51,5.17,5.59,8,5.23-1.33,1.66-2.8,8.71,2.39,9.7,5.69-2.51,6.25-9.09,3.11-13.48S332.57,205.7,330.82,208.8Z" style="fill: rgb(38, 50, 56); transform-origin: 338.52px 215.207px;" id="eloy5kf44baqo" class="animable"></path><path d="M330.82,208c-4.41,1-4.91,4.81-2.51,4.62C332.45,212.26,336.58,206.63,330.82,208Z" style="fill: rgb(38, 50, 56); transform-origin: 330.271px 210.206px;" id="elnbk9024m1uo" class="animable"></path><path d="M311,276s-13.18,55.8-12,69.89c1.35,16.47,19.37,43,19.37,43l8.27-7.51s-8.22-21.75-14.29-35.91c1.95-14.17,19.15-54.2,19.15-67.68Z" style="fill: rgb(64, 123, 255); transform-origin: 315.213px 332.445px;" id="eleknusyacx85" class="animable"></path><g id="elftebueat3xe"><path d="M311,276s-13.18,55.8-12,69.89c1.35,16.47,19.37,43,19.37,43l8.27-7.51s-8.22-21.75-14.29-35.91c1.95-14.17,19.15-54.2,19.15-67.68Z" style="opacity: 0.4; transform-origin: 315.213px 332.445px;" class="animable"></path></g><polygon points="328.1 382.55 318.33 389.84 315.82 387.94 326.55 379.47 328.1 382.55" style="fill: rgb(64, 123, 255); transform-origin: 321.96px 384.655px;" id="elo72rtoutw2" class="animable"></polygon><g id="elwh8z65cfa3"><path d="M320.72,300.58c-7.26,10.05-7.62,28.54-7.16,38.93,2.49-9.54,7.71-23.8,11.87-36.64C325.34,297.94,324.11,295.87,320.72,300.58Z" style="opacity: 0.4; transform-origin: 319.428px 318.72px;" class="animable"></path></g><path d="M315.65,276.08s3.63,47.17,5.25,63.43c1.91,19.31,12,51,12,51l9.17-1.62s-5.07-25.74-6.59-43c.28-23,4.86-53.16.5-67.61Z" style="fill: rgb(64, 123, 255); transform-origin: 328.86px 333.295px;" id="el3gb3khwgbd4" class="animable"></path><g id="el2m6g8zbxamq"><path d="M315.65,276.08s3.63,47.17,5.25,63.43c1.91,19.31,12,51,12,51l9.17-1.62s-5.07-25.74-6.59-43c.28-23,4.86-53.16.5-67.61Z" style="opacity: 0.4; transform-origin: 328.86px 333.295px;" class="animable"></path></g><polygon points="342.95 390.48 332.34 391.6 331.15 388.38 343.06 386.43 342.95 390.48" style="fill: rgb(64, 123, 255); transform-origin: 337.105px 389.015px;" id="el6r2ici2zeaw" class="animable"></polygon><path d="M331.94,218.75c-.13.48-.5.8-.81.71s-.46-.55-.33-1,.51-.8.82-.71S332.08,218.27,331.94,218.75Z" style="fill: rgb(38, 50, 56); transform-origin: 331.373px 218.605px;" id="eljhj3ktlh4i" class="animable"></path><path d="M326.5,217.2c-.14.48-.51.8-.82.71s-.46-.56-.32-1,.5-.8.81-.71S326.63,216.71,326.5,217.2Z" style="fill: rgb(38, 50, 56); transform-origin: 325.927px 217.056px;" id="elbyiwwcajhqm" class="animable"></path><path d="M326.31,216.23l-1.07-.67S325.58,216.64,326.31,216.23Z" style="fill: rgb(38, 50, 56); transform-origin: 325.775px 215.941px;" id="ell99fnu3ig6e" class="animable"></path><path d="M328.22,218.84a13.63,13.63,0,0,1-2.59,2.59,2.15,2.15,0,0,0,1.62.81Z" style="fill: rgb(255, 86, 82); transform-origin: 326.925px 220.54px;" id="elqzy7tqfqmh8" class="animable"></path><path d="M329.61,224.82a5.49,5.49,0,0,1-.83-.16.16.16,0,0,1-.1-.18.16.16,0,0,1,.19-.11,3.93,3.93,0,0,0,3.53-.6.15.15,0,0,1,.2.22A4.13,4.13,0,0,1,329.61,224.82Z" style="fill: rgb(38, 50, 56); transform-origin: 330.656px 224.295px;" id="ellno0lnacm5" class="animable"></path><path d="M342.78,226a4.52,4.52,0,0,1-3.23,1.18c-1.58-.07-1.94-1.14-1.09-2.37s2.31-2.49,4-2.19C343.93,222.92,343.85,225,342.78,226Z" style="fill: rgb(255, 139, 123); transform-origin: 340.794px 224.879px;" id="elygkf5syen6" class="animable"></path><path d="M335.8,217.46a.28.28,0,0,1-.18-.14,2.34,2.34,0,0,0-1.76-1.19.3.3,0,0,1-.29-.31.31.31,0,0,1,.31-.28,2.93,2.93,0,0,1,2.24,1.48.31.31,0,0,1-.1.41A.29.29,0,0,1,335.8,217.46Z" style="fill: rgb(38, 50, 56); transform-origin: 334.865px 216.505px;" id="el2dhmbszo00j" class="animable"></path><path d="M325.45,214.66a.3.3,0,0,1-.16-.52,3,3,0,0,1,2.61-.67.3.3,0,0,1,.19.37.29.29,0,0,1-.36.2,2.3,2.3,0,0,0-2.05.55A.29.29,0,0,1,325.45,214.66Z" style="fill: rgb(38, 50, 56); transform-origin: 326.647px 214.032px;" id="el0myebwq30wj" class="animable"></path><path d="M345.17,243.14c1.21,3.54,2.23,7,3.09,10.66.43,1.81.84,3.64,1.13,5.52a33.91,33.91,0,0,1,.49,6,14.21,14.21,0,0,1-.16,1.75,7.79,7.79,0,0,1-.24,1c-.06.2-.11.36-.19.57a4.42,4.42,0,0,1-1.77,2.14,5.11,5.11,0,0,1-1.5.59,6.48,6.48,0,0,1-2.26.06,18.75,18.75,0,0,1-5.9-2.12,59,59,0,0,1-9.31-6.23,1.58,1.58,0,0,1,1.7-2.65l0,0a103.29,103.29,0,0,0,9.59,4.36c.8.3,1.59.57,2.35.78a9.2,9.2,0,0,0,2.06.37.86.86,0,0,0,.43-.05s-.1,0-.24.09a1.23,1.23,0,0,0-.41.38.81.81,0,0,0-.11.2s0-.06,0-.09a1.41,1.41,0,0,0,.05-.3,9.13,9.13,0,0,0,0-.95,29.4,29.4,0,0,0-.68-4.81c-.37-1.68-.75-3.38-1.21-5.08-.91-3.38-1.94-6.83-3-10.16v0a3.18,3.18,0,0,1,6-2Z" style="fill: rgb(255, 139, 123); transform-origin: 338.907px 256.405px;" id="elgvaszhgcwa6" class="animable"></path><path d="M336.16,410.78a.81.81,0,0,1-.13-.71.56.56,0,0,1,.32-.42c.75-.33,2.55.88,2.76,1a.14.14,0,0,1,.05.15.15.15,0,0,1-.12.12c-.82.2-2.27.45-2.82-.08Zm2.48-.06c-.74-.46-1.79-1-2.18-.8a.23.23,0,0,0-.14.19.51.51,0,0,0,.12.52C336.73,410.92,337.54,411,338.64,410.72Z" style="fill: rgb(64, 123, 255); transform-origin: 337.582px 410.375px;" id="elauo0wc5u4gl" class="animable"></path><path d="M338.2,410.23a2.42,2.42,0,0,1-.69-1.68.58.58,0,0,1,.53-.41.72.72,0,0,1,.61.19c.63.59.52,2.38.51,2.46a.13.13,0,0,1-.08.12.14.14,0,0,1-.14,0A3.47,3.47,0,0,1,338.2,410.23Zm.3-1.61-.06-.07a.46.46,0,0,0-.39-.12c-.19,0-.23.11-.25.18-.11.42.52,1.43,1.08,1.89A3.52,3.52,0,0,0,338.5,408.62Z" style="fill: rgb(64, 123, 255); transform-origin: 338.342px 409.53px;" id="eloq16paybacg" class="animable"></path><path d="M336.55,276.8l.28,2.3c.05.19-.18.35-.47.32l-25.7-2.27c-.22,0-.39-.15-.38-.29l.14-2.27c0-.16.22-.28.47-.25l25.29,2.23C336.36,276.59,336.52,276.68,336.55,276.8Z" style="fill: rgb(255, 255, 255); transform-origin: 323.558px 276.88px;" id="elix8wodnm6pr" class="animable"></path><path d="M332.69,279.34l.68.06c.14,0,.25,0,.25-.13l.16-2.95c0-.09-.1-.17-.23-.18l-.68-.06c-.14,0-.25.05-.26.13l-.15,3C332.45,279.25,332.56,279.33,332.69,279.34Z" style="fill: rgb(64, 123, 255); transform-origin: 333.12px 277.74px;" id="el26mwdhxn7e6" class="animable"></path><g id="elcexi1yuvptb"><path d="M332.69,279.34l.68.06c.14,0,.25,0,.25-.13l.16-2.95c0-.09-.1-.17-.23-.18l-.68-.06c-.14,0-.25.05-.26.13l-.15,3C332.45,279.25,332.56,279.33,332.69,279.34Z" style="opacity: 0.4; transform-origin: 333.12px 277.74px;" class="animable"></path></g><path d="M312.52,277.56l.68.06c.14,0,.25-.05.26-.14l.15-3c0-.08-.1-.16-.23-.18l-.68-.06c-.14,0-.25,0-.25.14l-.16,2.95C312.28,277.47,312.39,277.55,312.52,277.56Z" style="fill: rgb(64, 123, 255); transform-origin: 312.95px 275.93px;" id="el9z303g793l" class="animable"></path><g id="elh0ib01bcul"><path d="M312.52,277.56l.68.06c.14,0,.25-.05.26-.14l.15-3c0-.08-.1-.16-.23-.18l-.68-.06c-.14,0-.25,0-.25.14l-.16,2.95C312.28,277.47,312.39,277.55,312.52,277.56Z" style="opacity: 0.4; transform-origin: 312.95px 275.93px;" class="animable"></path></g><path d="M322.61,278.45l.68.06c.13,0,.25-.05.25-.13l.16-3c0-.08-.1-.16-.24-.17l-.68-.06c-.13,0-.25,0-.25.13l-.16,2.95C322.37,278.36,322.47,278.44,322.61,278.45Z" style="fill: rgb(64, 123, 255); transform-origin: 323.035px 276.83px;" id="elq6r35g0ubdp" class="animable"></path><g id="elrwq4n1bf"><path d="M322.61,278.45l.68.06c.13,0,.25-.05.25-.13l.16-3c0-.08-.1-.16-.24-.17l-.68-.06c-.13,0-.25,0-.25.13l-.16,2.95C322.37,278.36,322.47,278.44,322.61,278.45Z" style="opacity: 0.4; transform-origin: 323.035px 276.83px;" class="animable"></path></g><path d="M293.54,246l-2-2.9a1.83,1.83,0,0,0-2.16-.69l-1.92.72a1.83,1.83,0,0,0-1.06,2.39l.8,2a3,3,0,0,0,1.38,1.53l4.75,2.5,2.52-.52C296.49,248.44,293.54,246,293.54,246Z" style="fill: rgb(255, 139, 123); transform-origin: 291.106px 246.922px;" id="el5i452824bwi" class="animable"></path><path d="M296,250.35a8.66,8.66,0,0,0-.68-5c-.18-.56-.61-2.48-.94-2.59-.78-.27-1,1.08-.82,1.9a1.05,1.05,0,0,1-.64,1.18S294.7,250.2,296,250.35Z" style="fill: rgb(255, 139, 123); transform-origin: 294.516px 246.537px;" id="elubc8hgxf2r" class="animable"></path><path d="M288.88,243.14a1,1,0,0,1,.65.48l2.92-14.79a21.14,21.14,0,0,1,.28,9L291,239l-1.26,6.39h0c-.22,1.1-1,1.88-1.69,1.73s-1.12-1.14-.9-2.24S288.16,243,288.88,243.14Zm-.68,3.43c.51.1,1.06-.46,1.22-1.25s-.14-1.52-.65-1.62-1.06.45-1.22,1.25S287.68,246.47,288.2,246.57Z" style="fill: rgb(38, 50, 56); transform-origin: 290.089px 237.984px;" id="elv0ojpx959vn" class="animable"></path><path d="M292.94,241.83a1.07,1.07,0,0,0-.42.7L284.13,230a21.13,21.13,0,0,0,3.23,8.44l2,.4,3.62,5.4h0c.63.93,1.62,1.36,2.23,1s.58-1.49,0-2.42S293.55,241.42,292.94,241.83Zm1.95,2.91c-.43.29-1.16,0-1.6-.69s-.46-1.45,0-1.75,1.15,0,1.6.69S295.33,244.44,294.89,244.74Z" style="fill: rgb(38, 50, 56); transform-origin: 289.893px 237.683px;" id="ell2x4nqnzrp" class="animable"></path><path d="M331.75,217.78l-1.06-.66S331,218.19,331.75,217.78Z" style="fill: rgb(38, 50, 56); transform-origin: 331.22px 217.497px;" id="el9zn8prasr1n" class="animable"></path><path d="M332.14,261.72l-2.23-4.81a3.14,3.14,0,0,0-1.56-1.55l-1.9-.88a1.83,1.83,0,0,0-2.45.94l-.81,1.88a1.83,1.83,0,0,0,.57,2.19l2.8,2.1s2.31,3.07,4.92,2.61Z" style="fill: rgb(255, 139, 123); transform-origin: 327.588px 259.279px;" id="el3zndqkae9ux" class="animable"></path></g><g id="freepik--Sign--inject-1" class="animable animator-active" style="transform-origin: 173.255px 363.585px;"><path d="M149.44,304.8h50.95a7.09,7.09,0,0,1,6.93,6.38l8.34,95.32a5.75,5.75,0,0,1-5.82,6.38H158.9A7.11,7.11,0,0,1,152,406.5l-8.34-95.32A5.75,5.75,0,0,1,149.44,304.8Z" style="fill: rgb(38, 50, 56); transform-origin: 179.66px 358.84px;" id="elxsmbaus3tqg" class="animable"></path><path d="M206.55,386.41h6a1.52,1.52,0,0,1,1.49,1.36l2.9,33.24a1.22,1.22,0,0,1-1.24,1.36h-6a1.5,1.5,0,0,1-1.48-1.36l-2.91-33.24A1.22,1.22,0,0,1,206.55,386.41Z" style="fill: rgb(38, 50, 56); transform-origin: 211.125px 404.39px;" id="elnlwme303leq" class="animable"></path><path d="M151.6,386.41h6a1.52,1.52,0,0,1,1.48,1.36L162,421a1.23,1.23,0,0,1-1.25,1.36h-6a1.51,1.51,0,0,1-1.48-1.36l-2.91-33.24A1.23,1.23,0,0,1,151.6,386.41Z" style="fill: rgb(38, 50, 56); transform-origin: 156.181px 404.385px;" id="elb0o1ua9ji9u" class="animable"></path><path d="M197.06,304.8H146.12a7.1,7.1,0,0,0-6.94,6.38l-8.34,95.32a5.75,5.75,0,0,0,5.82,6.38H187.6a7.1,7.1,0,0,0,6.94-6.38l8.34-95.32A5.75,5.75,0,0,0,197.06,304.8Z" style="fill: rgb(64, 123, 255); transform-origin: 166.86px 358.84px;" id="elf7ia7n0gg9b" class="animable"></path><path d="M140,386.41h-6a1.51,1.51,0,0,0-1.48,1.36L129.57,421a1.22,1.22,0,0,0,1.24,1.36h6a1.51,1.51,0,0,0,1.48-1.36l2.9-33.24A1.22,1.22,0,0,0,140,386.41Z" style="fill: rgb(64, 123, 255); transform-origin: 135.379px 404.385px;" id="el4fcmdhynjwf" class="animable"></path><path d="M194.91,386.41h-6a1.52,1.52,0,0,0-1.49,1.36L184.53,421a1.22,1.22,0,0,0,1.24,1.36h6a1.5,1.5,0,0,0,1.48-1.36l2.91-33.24A1.22,1.22,0,0,0,194.91,386.41Z" style="fill: rgb(64, 123, 255); transform-origin: 190.344px 404.385px;" id="elvi1s6r1cud" class="animable"></path><path d="M136.89,410.32a3.45,3.45,0,0,1-3.49-3.82l8.34-95.32a4.25,4.25,0,0,1,4.15-3.82h50.94a3.44,3.44,0,0,1,3.49,3.82L192,406.5a4.26,4.26,0,0,1-4.15,3.82Z" style="fill: rgb(255, 255, 255); transform-origin: 166.861px 358.84px;" id="elbtmfa1kvkq9" class="animable"></path><path d="M145.71,332l3.28-.2a2.39,2.39,0,0,0,.33,1.21,1.64,1.64,0,0,0,1.45.67,1.84,1.84,0,0,0,1.16-.34,1.15,1.15,0,0,0,.47-.8.94.94,0,0,0-.31-.77,3.92,3.92,0,0,0-1.7-.65,6.72,6.72,0,0,1-3.1-1.34,2.53,2.53,0,0,1-.78-2.14,3.13,3.13,0,0,1,.64-1.62,3.69,3.69,0,0,1,1.59-1.19,7.26,7.26,0,0,1,2.77-.44,5.21,5.21,0,0,1,3.17.79,3.1,3.1,0,0,1,1.11,2.52l-3.25.19a1.57,1.57,0,0,0-.44-1.09,1.62,1.62,0,0,0-1.11-.34,1.49,1.49,0,0,0-.93.25.86.86,0,0,0-.35.62.53.53,0,0,0,.21.47,2.58,2.58,0,0,0,1.11.41,13.2,13.2,0,0,1,3.13,1,3,3,0,0,1,1.31,1.23,3,3,0,0,1,.3,1.64,3.84,3.84,0,0,1-.76,2,4.22,4.22,0,0,1-1.77,1.36,7,7,0,0,1-2.71.47c-1.89,0-3.16-.36-3.83-1.09A4,4,0,0,1,145.71,332Z" style="fill: rgb(64, 123, 255); transform-origin: 150.75px 330.144px;" id="elmtt1vjc1wyb" class="animable"></path><path d="M158.16,324.59h3.43l-.34,3.88H165l.34-3.88h3.45l-1,11.09h-3.45l.4-4.49H161l-.39,4.49h-3.43Z" style="fill: rgb(64, 123, 255); transform-origin: 162.985px 330.135px;" id="elwoxk6fuhks" class="animable"></path><path d="M170.14,330.14a5.8,5.8,0,0,1,6.22-5.74,5.36,5.36,0,0,1,4.14,1.49,5.2,5.2,0,0,1,1.13,4.16,7.19,7.19,0,0,1-.93,3.19,5.41,5.41,0,0,1-2.06,1.94,6.62,6.62,0,0,1-3.14.69,6.77,6.77,0,0,1-3.06-.6,4.12,4.12,0,0,1-1.82-1.89A5.86,5.86,0,0,1,170.14,330.14Zm3.42,0a3.52,3.52,0,0,0,.41,2.41,1.94,1.94,0,0,0,1.64.73,2.34,2.34,0,0,0,1.77-.71,4.38,4.38,0,0,0,.83-2.58,3.23,3.23,0,0,0-.43-2.29,2,2,0,0,0-1.65-.72,2.27,2.27,0,0,0-1.73.73A4,4,0,0,0,173.56,330.16Z" style="fill: rgb(64, 123, 255); transform-origin: 175.892px 330.13px;" id="elkhq7j2beqa" class="animable"></path><path d="M183.94,324.59h5.7a3.66,3.66,0,0,1,2.71.88,3.09,3.09,0,0,1,.7,2.52,3.72,3.72,0,0,1-1.24,2.63,4.68,4.68,0,0,1-3.16.94h-1.88l-.36,4.12H183Zm3,4.73h.84a2.29,2.29,0,0,0,1.42-.35,1.21,1.21,0,0,0,.48-.88,1.13,1.13,0,0,0-.27-.88,1.7,1.7,0,0,0-1.28-.37h-1Z" style="fill: rgb(64, 123, 255); transform-origin: 188.046px 330.128px;" id="eluheyg63r2qa" class="animable"></path><path d="M144,346.63l.67-7.68h4a5.45,5.45,0,0,1,1.67.19,1.57,1.57,0,0,1,.88.7,2,2,0,0,1,.24,1.24,2.15,2.15,0,0,1-.37,1.1,2.46,2.46,0,0,1-.81.76,3.28,3.28,0,0,1-.86.3,2.52,2.52,0,0,1,.59.28,2.47,2.47,0,0,1,.35.41,3.35,3.35,0,0,1,.29.48l.95,2.22h-2.68l-1.07-2.35a1.66,1.66,0,0,0-.37-.59.92.92,0,0,0-.57-.18h-.21l-.27,3.12Zm2.79-4.57h1a3.57,3.57,0,0,0,.64-.1.67.67,0,0,0,.4-.24.76.76,0,0,0,.19-.45.66.66,0,0,0-.18-.57,1.38,1.38,0,0,0-.87-.2h-1Z" style="fill: rgb(64, 123, 255); transform-origin: 147.8px 342.788px;" id="elezfm4ta7gk8" class="animable"></path><path d="M153,339h6.36l-.14,1.64h-4l-.11,1.22h3.7l-.14,1.57H155l-.13,1.51h4.1l-.15,1.74H152.3Z" style="fill: rgb(64, 123, 255); transform-origin: 155.83px 342.84px;" id="ele217nbd89eo" class="animable"></path><path d="M160.09,342.8a4,4,0,0,1,4.32-4,3.7,3.7,0,0,1,2.87,1,3.6,3.6,0,0,1,.78,2.88,5.06,5.06,0,0,1-.64,2.21,3.61,3.61,0,0,1-1.43,1.34,4.59,4.59,0,0,1-2.18.48,4.66,4.66,0,0,1-2.12-.41,2.86,2.86,0,0,1-1.26-1.31A4.14,4.14,0,0,1,160.09,342.8Zm2.38,0a2.42,2.42,0,0,0,.28,1.67,1.35,1.35,0,0,0,1.14.51,1.58,1.58,0,0,0,1.22-.5,3,3,0,0,0,.58-1.79,2.25,2.25,0,0,0-.3-1.58,1.35,1.35,0,0,0-1.14-.51,1.58,1.58,0,0,0-1.2.51A2.8,2.8,0,0,0,162.47,342.81Z" style="fill: rgb(64, 123, 255); transform-origin: 164.085px 342.75px;" id="elqsgawts24i" class="animable"></path><path d="M169.66,339h4a2.5,2.5,0,0,1,1.88.61,2.17,2.17,0,0,1,.49,1.75,2.64,2.64,0,0,1-.86,1.82,3.31,3.31,0,0,1-2.19.65h-1.3l-.25,2.85H169Zm2.1,3.27h.58a1.68,1.68,0,0,0,1-.23.86.86,0,0,0,.33-.62.78.78,0,0,0-.19-.61,1.14,1.14,0,0,0-.88-.25h-.68Z" style="fill: rgb(64, 123, 255); transform-origin: 172.529px 342.835px;" id="eljgl2bzuealp" class="animable"></path><path d="M177.42,339h6.37l-.15,1.64h-4l-.11,1.22h3.7l-.14,1.57h-3.7l-.13,1.51h4.1l-.15,1.74h-6.48Z" style="fill: rgb(64, 123, 255); transform-origin: 180.26px 342.84px;" id="el0une1hlhsi2b" class="animable"></path><path d="M185.2,339h2.22l2.52,4.25.37-4.25h2.24l-.67,7.68h-2.24l-2.51-4.22-.37,4.22h-2.24Z" style="fill: rgb(64, 123, 255); transform-origin: 188.535px 342.84px;" id="elkgdt7rgt4ck" class="animable"></path><path d="M173.49,386.76l-5.6-2.33c.81,3.24-2.36,5.58-5,6.92-1.26.64-1,2.29.53,2.9l3.65,1.52C171.49,397.61,173.49,386.76,173.49,386.76Z" style="fill: rgb(64, 123, 255); transform-origin: 167.789px 390.205px;" id="el2z48a0xlb15" class="animable"></path><path d="M174.63,387.23,164.36,383a6.32,6.32,0,0,1-3-8.79h0a7.33,7.33,0,0,1,9.13-3.77l10.26,4.27a6.33,6.33,0,0,1,3,8.8h0A7.32,7.32,0,0,1,174.63,387.23Z" style="fill: rgb(64, 123, 255); transform-origin: 172.555px 378.838px;" id="elzs7lpkl63m" class="animable"></path><g id="eleefuq989m3p"><path d="M174.63,387.23,164.36,383a6.32,6.32,0,0,1-3-8.79h0a7.33,7.33,0,0,1,9.13-3.77l10.26,4.27a6.33,6.33,0,0,1,3,8.8h0A7.32,7.32,0,0,1,174.63,387.23Z" style="opacity: 0.3; transform-origin: 172.555px 378.838px;" class="animable"></path></g><path d="M145.54,381.5l18.83,4.15c1.57.65,9.89-16.37,8.32-17l-15.85-10.26C154.59,357.43,143.29,380.57,145.54,381.5Z" style="fill: rgb(64, 123, 255); transform-origin: 159.066px 372.015px;" id="el6edah8wdbgm" class="animable"></path></g><defs>     <filter id="active" height="200%">         <feMorphology in="SourceAlpha" result="DILATED" operator="dilate" radius="2"></feMorphology>                <feFlood flood-color="#32DFEC" flood-opacity="1" result="PINK"></feFlood>        <feComposite in="PINK" in2="DILATED" operator="in" result="OUTLINE"></feComposite>        <feMerge>            <feMergeNode in="OUTLINE"></feMergeNode>            <feMergeNode in="SourceGraphic"></feMergeNode>        </feMerge>    </filter>    <filter id="hover" height="200%">        <feMorphology in="SourceAlpha" result="DILATED" operator="dilate" radius="2"></feMorphology>                <feFlood flood-color="#ff0000" flood-opacity="0.5" result="PINK"></feFlood>        <feComposite in="PINK" in2="DILATED" operator="in" result="OUTLINE"></feComposite>        <feMerge>            <feMergeNode in="OUTLINE"></feMergeNode>            <feMergeNode in="SourceGraphic"></feMergeNode>        </feMerge>            <feColorMatrix type="matrix" values="0   0   0   0   0                0   1   0   0   0                0   0   0   0   0                0   0   0   1   0 "></feColorMatrix>    </filter></defs></svg>